<svg width="14" height="14" viewBox="0 0 14 14" fill="none" xmlns="http://www.w3.org/2000/svg">
<circle cx="7" cy="7" r="7" fill="#F7B406"/>
<path d="M9.38157 9.94177L7 7.56017L4.61843 9.94177C4.54129 10.0189 4.41571 10.0189 4.33814 9.94177L4.05786 9.66148C3.98071 9.58434 3.98071 9.45876 4.05786 9.38119L6.43986 7.00003L4.05786 4.61843C3.98071 4.54129 3.98071 4.41572 4.05786 4.33815L4.33814 4.05786C4.41529 3.98071 4.54086 3.98071 4.61843 4.05786L7 6.43945L9.38157 4.05786C9.45871 3.98071 9.58429 3.98071 9.66186 4.05786L9.94214 4.33815C10.0193 4.41529 10.0193 4.54086 9.94214 4.61843L7.56014 7.00003L9.94171 9.38162C10.0189 9.45876 10.0189 9.58434 9.94171 9.66191L9.66143 9.9422C9.58471 10.0193 9.45871 10.0193 9.38157 9.94177Z" fill="#111111"/>
</svg>
