<svg width="24" height="24" viewBox="0 0 24 24" fill="none" xmlns="http://www.w3.org/2000/svg">
<path d="M12 1.99905C17.524 1.99905 22.002 6.47705 22.002 12.001C22.002 17.524 17.524 22.002 12 22.002C6.476 22.002 2 17.524 2 12.001C1.999 6.47705 6.476 1.99805 12 1.99805V1.99905ZM12 3.49905C10.8758 3.48685 9.76036 3.69775 8.71822 4.11952C7.67607 4.54129 6.72793 5.16557 5.92866 5.95621C5.12939 6.74686 4.49487 7.68818 4.06182 8.72569C3.62877 9.7632 3.40579 10.8763 3.40579 12.0005C3.40579 13.1248 3.62877 14.2379 4.06182 15.2754C4.49487 16.3129 5.12939 17.2542 5.92866 18.0449C6.72793 18.8355 7.67607 19.4598 8.71822 19.8816C9.76036 20.3033 10.8758 20.5142 12 20.502C14.232 20.4678 16.361 19.5571 17.9274 17.9666C19.4937 16.3761 20.3716 14.2333 20.3716 12.001C20.3716 9.76876 19.4937 7.62603 17.9274 6.03551C16.361 4.44498 14.232 3.53428 12 3.50005V3.49905ZM11.996 10.499C12.1774 10.4988 12.3528 10.5643 12.4896 10.6835C12.6264 10.8026 12.7153 10.9673 12.74 11.147L12.747 11.249L12.751 16.751C12.7529 16.9424 12.6817 17.1273 12.5517 17.2678C12.4218 17.4084 12.2431 17.4939 12.0521 17.5069C11.8612 17.52 11.6725 17.4595 11.5247 17.338C11.3768 17.2164 11.2811 17.0429 11.257 16.853L11.251 16.752L11.247 11.25C11.247 11.0511 11.326 10.8604 11.4667 10.7197C11.6073 10.5791 11.7981 10.5 11.997 10.5L11.996 10.499ZM12.001 7.00205C12.1348 6.99781 12.2681 7.02051 12.3929 7.06878C12.5177 7.11705 12.6316 7.18992 12.7277 7.28306C12.8239 7.3762 12.9003 7.4877 12.9525 7.61096C13.0047 7.73421 13.0316 7.8667 13.0316 8.00055C13.0316 8.1344 13.0047 8.26688 12.9525 8.39014C12.9003 8.51339 12.8239 8.6249 12.7277 8.71803C12.6316 8.81117 12.5177 8.88404 12.3929 8.93231C12.2681 8.98059 12.1348 9.00328 12.001 8.99905C11.7417 8.99084 11.4957 8.88204 11.3151 8.69568C11.1346 8.50932 11.0336 8.26003 11.0336 8.00055C11.0336 7.74107 11.1346 7.49177 11.3151 7.30541C11.4957 7.11905 11.7417 7.01026 12.001 7.00205Z" fill="white"/>
</svg>
