<svg width="24" height="24" viewBox="0 0 24 24" fill="none" xmlns="http://www.w3.org/2000/svg">
<g opacity="0.6">
<path d="M18.8 6.40043H5.2C4.54 6.40043 4 5.86033 4 5.20021C4 4.5401 4.54 4 5.2 4H18.8C19.46 4 20 4.5401 20 5.20021C20 5.86033 19.46 6.40043 18.8 6.40043ZM18.8 10.9327H5.2C4.54 10.9327 4 10.3926 4 9.73245C4 9.07233 4.54 8.53224 5.2 8.53224H18.8C19.46 8.53224 20 9.07233 20 9.73245C20 10.3926 19.46 10.9327 18.8 10.9327ZM18.8 15.4678H5.2C4.54 15.4678 4 14.9277 4 14.2675C4 13.6074 4.54 13.0673 5.2 13.0673H18.8C19.46 13.0673 20 13.6074 20 14.2675C20 14.9277 19.46 15.4678 18.8 15.4678ZM15.1086 20H5.2C4.54 20 4 19.4599 4 18.7998C4 18.1397 4.54 17.5996 5.2 17.5996H15.1086C15.7686 17.5996 16.3086 18.1397 16.3086 18.7998C16.3086 19.4599 15.7686 20 15.1086 20Z" fill="white"/>
</g>
</svg>
