<svg xmlns="http://www.w3.org/2000/svg" width="16" height="16" viewBox="0 0 16 16" fill="none">
<g clip-path="url(#clip0_423_12451)">
<path d="M1.96469 7.66797C2.92082 7.66797 3.80082 8.48242 4.04934 8.73248C4.06869 8.7521 4.0865 8.77352 4.1025 8.79468C4.74663 9.63029 6.47644 10.9041 8.17785 11.0303C8.06792 10.6486 8.05914 10.1751 8.2594 9.77223C8.28779 9.71365 8.32521 9.66049 8.3696 9.61249C8.66149 9.3021 9.03855 9.08484 9.45347 8.98797C9.50327 8.97558 9.55282 8.97042 9.60443 8.97042H9.71256C10.7913 8.97042 12.5247 10.0775 12.9505 10.3614C13.3319 10.5477 13.9299 10.7498 14.51 10.9451L14.5526 10.9593C14.5828 10.9696 14.6111 10.9823 14.6395 10.9965C14.9482 11.1526 15.2073 11.4117 15.3456 11.5518C15.4679 11.676 15.5407 11.8463 15.5407 12.0202V14.7327C15.5373 15.4174 15.0228 15.9356 14.3379 15.9356H7.02276C6.9856 15.9356 6.94998 15.932 6.91282 15.9268C6.85605 15.9178 5.48469 15.6801 4.10431 14.8675C3.29964 14.4078 2.58496 13.806 1.99489 13.0915C1.25502 12.2225 0.708435 11.4011 0.468951 10.2512C0.227661 9.59674 0.293467 8.95623 0.660693 8.39907C0.685467 8.3619 0.712048 8.3281 0.742241 8.2979C0.990499 8.04758 1.36676 7.66823 1.96469 7.66823V7.66797ZM1.96108 8.99339C1.92392 8.99339 1.81398 9.09636 1.73037 9.17971C1.62043 9.37326 1.61682 9.57532 1.71618 9.82384C1.73037 9.861 1.74276 9.89997 1.74973 9.93894C1.92908 10.8422 2.36211 11.4899 3.00418 12.2437C3.4966 12.8397 4.09289 13.3415 4.76418 13.725C5.80211 14.3338 6.84908 14.5663 7.08314 14.614H14.2135V12.3023C14.1685 12.2621 14.1205 12.2253 14.07 12.1924C13.4047 11.9671 12.7766 11.7557 12.317 11.5235C12.2922 11.5111 12.2692 11.4969 12.246 11.4827C11.5097 10.9893 10.2377 10.2922 9.70921 10.2922H9.6896C9.59179 10.3222 9.50121 10.372 9.42147 10.4357C9.40908 10.5369 9.44108 10.6682 9.47127 10.7338C9.53682 10.8156 9.58121 10.9095 9.60263 11.0107L9.90405 11.3921C9.98144 11.4896 10.0298 11.6069 10.0435 11.7306C10.0573 11.8543 10.0359 11.9794 9.98178 12.0915C9.92767 12.2035 9.84306 12.2981 9.73765 12.3643C9.63225 12.4305 9.51032 12.4656 9.38585 12.4656C9.04727 12.4656 8.59101 12.4656 8.10327 12.3521C5.87669 12.2011 3.86121 10.6293 3.08056 9.63932C2.6994 9.26307 2.23256 8.99339 1.96134 8.99339H1.96108Z" fill="#111111"/>
<path d="M13.4047 8.48318C13.3546 8.48313 13.3046 8.47777 13.2556 8.46718C13.1709 8.44779 13.0908 8.41189 13.0199 8.36152C12.9491 8.31116 12.8889 8.24732 12.8428 8.17367C12.7966 8.10001 12.7655 8.01798 12.7511 7.93227C12.7366 7.84655 12.7393 7.75884 12.7588 7.67415C13.2096 5.71905 12.4945 3.66641 10.9387 2.44215C9.96087 1.75002 8.90177 1.38821 7.81429 1.38821C6.19623 1.38821 4.78565 2.0535 3.73171 3.31337C3.23833 3.98869 2.90029 4.7647 2.74177 5.58589C2.70882 5.75813 2.60879 5.91022 2.4637 6.0087C2.31861 6.10719 2.14033 6.14401 1.9681 6.11105C1.79586 6.0781 1.64377 5.97807 1.54528 5.83298C1.4468 5.68788 1.40998 5.50961 1.44294 5.33737C1.64021 4.31585 2.06266 3.35113 2.67958 2.51337C2.68681 2.50254 2.69558 2.49376 2.70281 2.48318C3.99752 0.925245 5.81429 0.0664062 7.81429 0.0664062C9.18023 0.0664062 10.4987 0.510019 11.7299 1.38279C13.7134 2.94254 14.613 5.5206 14.0471 7.97221C14.0133 8.11738 13.9314 8.24686 13.8148 8.33963C13.6981 8.43239 13.5535 8.48298 13.4045 8.48318H13.4047ZM7.933 7.7735V8.53479H7.19932V7.83337C6.70384 7.81015 6.22229 7.66821 5.94255 7.51699L6.16268 6.64989C6.47003 6.8197 6.91029 6.97557 7.39184 6.97557C7.82281 6.97557 8.10719 6.80602 8.10719 6.51699C8.10719 6.23725 7.86874 6.05841 7.31855 5.87054C6.525 5.60912 5.98384 5.2375 5.98384 4.5175C5.98384 3.85686 6.44242 3.34795 7.23132 3.19673V2.4997H7.95597V3.15079C8.44216 3.16447 8.77687 3.27931 9.03829 3.39389L8.81816 4.22847C8.63003 4.1415 8.28603 3.96705 7.74977 3.96705C7.26797 3.96705 7.1121 4.18279 7.1121 4.38899C7.1121 4.6277 7.36887 4.7926 8.01094 5.01737C8.89145 5.32937 9.2401 5.73737 9.2401 6.4117C9.24474 7.06718 8.7859 7.63621 7.933 7.77376V7.7735Z" fill="#111111"/>
</g>
<defs>
<clipPath id="clip0_423_12451">
<rect width="16" height="16" fill="white"/>
</clipPath>
</defs>
</svg>