<svg width="44" height="44" viewBox="0 0 44 44" fill="none" xmlns="http://www.w3.org/2000/svg">
<circle cx="22" cy="22" r="22" fill="#2F2F2F"/>
<circle cx="22" cy="22" r="21.5" stroke="white" stroke-opacity="0.1"/>
<path d="M21.3637 14.6388V27.4698L16.6998 22.4177C16.6152 22.324 16.5128 22.2479 16.3987 22.194C16.2845 22.1401 16.1607 22.1094 16.0346 22.1037C15.9085 22.0979 15.7825 22.1173 15.6638 22.1606C15.5452 22.2039 15.4364 22.2703 15.3436 22.3559C15.2509 22.4416 15.176 22.5448 15.1234 22.6596C15.0708 22.7743 15.0415 22.8984 15.0372 23.0246C15.0329 23.1508 15.0536 23.2766 15.0983 23.3947C15.1429 23.5128 15.2105 23.6209 15.2972 23.7127L21.617 30.56C21.7065 30.6566 21.8149 30.7337 21.9356 30.7864C22.0563 30.8391 22.1866 30.8663 22.3182 30.8663C22.4499 30.8663 22.5802 30.8391 22.7009 30.7864C22.8216 30.7337 22.93 30.6566 23.0195 30.56L29.3392 23.7127C29.4245 23.6207 29.4907 23.5128 29.5342 23.3951C29.5777 23.2774 29.5975 23.1524 29.5925 23.027C29.5875 22.9017 29.5579 22.7786 29.5053 22.6648C29.4526 22.5509 29.378 22.4486 29.2858 22.3636C29.1937 22.2785 29.0857 22.2125 28.968 22.1692C28.8504 22.1258 28.7253 22.1061 28.6 22.1112C28.4748 22.1162 28.3517 22.1458 28.2379 22.1984C28.1241 22.251 28.0217 22.3255 27.9367 22.4177L23.2728 27.4704V14.6381C23.2728 14.385 23.1722 14.1422 22.9932 13.9632C22.8142 13.7842 22.5714 13.6836 22.3182 13.6836C22.0651 13.6836 21.8223 13.7842 21.6433 13.9632C21.4643 14.1422 21.3637 14.385 21.3637 14.6381" fill="white" fill-opacity="0.6"/>
</svg>
