<svg width="16" height="16" viewBox="0 0 16 16" fill="none" xmlns="http://www.w3.org/2000/svg">
<path d="M8 0.949219C4.15 0.949219 1 4.09922 1 7.94922C1 11.7992 4.15 14.9492 8 14.9492C11.85 14.9492 15 11.7992 15 7.94922C15 4.09922 11.85 0.949219 8 0.949219ZM8 13.9492C4.7 13.9492 2 11.2492 2 7.94922C2 4.64922 4.7 1.94922 8 1.94922C11.3 1.94922 14 4.64922 14 7.94922C14 11.2992 11.3 13.9492 8 13.9492Z" fill="#F7B406"/>
<path d="M5 7.50089H11C11.3 7.50089 11.5 7.30089 11.5 7.00089C11.5 6.70089 11.3 6.50089 11 6.50089H6.55L7.35 5.90089C7.55 5.75089 7.6 5.40089 7.45 5.20089C7.3 5.00089 6.95 4.95089 6.75 5.10089L4.75 6.60089C4.6 6.75089 4.5 6.95089 4.55 7.15089C4.6 7.35089 4.8 7.50089 5 7.50089ZM11 8.50089H5C4.7 8.50089 4.5 8.70089 4.5 9.00089C4.5 9.30089 4.7 9.50089 5 9.50089H9.45L8.65 10.1009C8.45 10.2509 8.4 10.6009 8.55 10.8009C8.65 10.9509 8.8 11.0009 8.95 11.0009C9.05 11.0009 9.15 10.9509 9.25 10.9009L11.25 9.40089C11.4 9.25089 11.5 9.05089 11.45 8.85089C11.4 8.65089 11.2 8.50089 11 8.50089Z" fill="#F7B406"/>
</svg>
