<svg xmlns="http://www.w3.org/2000/svg" width="28" height="28" viewBox="0 0 28 28" fill="none">
  <g clip-path="url(#clip0_125_33561)">
    <mask id="mask0_125_33561" style="mask-type:luminance" maskUnits="userSpaceOnUse" x="0" y="0" width="28" height="28">
      <path d="M0 0H28V28H0V0Z" fill="white"/>
    </mask>
    <g mask="url(#mask0_125_33561)">
      <path d="M21.3333 0H6.66667C2.98467 0 0 2.98467 0 6.66667V21.3333C0 25.0153 2.98467 28 6.66667 28H21.3333C25.0153 28 28 25.0153 28 21.3333V6.66667C28 2.98467 25.0153 0 21.3333 0Z" fill="#070C34"/>
      <path d="M18.444 11.2249L19.6934 12.6762C19.8367 12.8396 19.9627 12.9736 20.0154 13.0509C20.3887 13.4176 20.598 13.9129 20.598 14.4309C20.5627 15.0409 20.16 15.4576 19.7894 15.9009L18.9154 16.9149L18.4587 17.4416C18.4467 17.4552 18.4379 17.4713 18.4328 17.4888C18.4278 17.5062 18.4267 17.5246 18.4297 17.5425C18.4326 17.5604 18.4395 17.5775 18.4498 17.5924C18.4601 17.6074 18.4736 17.6198 18.4894 17.6289C18.5114 17.6423 18.536 17.6476 18.5607 17.6462H23.1174C23.814 17.6462 24.6907 18.2249 24.6394 19.1022C24.6394 19.5002 24.4747 19.8829 24.186 20.1656C23.8933 20.4489 23.5021 20.6075 23.0947 20.6082H15.9574C15.488 20.6082 14.2254 20.6589 13.872 19.5942C13.7966 19.3717 13.7867 19.1323 13.8434 18.9043C13.947 18.5664 14.1095 18.2495 14.3234 17.9683C14.6885 17.4393 15.0653 16.9185 15.4534 16.4062C15.9474 15.7382 16.4554 15.0923 16.954 14.4116C16.9712 14.3895 16.9806 14.3623 16.9807 14.3342C16.9806 14.3062 16.9712 14.279 16.954 14.2569L15.1407 12.1529C15.1286 12.1375 15.1131 12.1252 15.0954 12.1167C15.0777 12.1083 15.0583 12.104 15.0387 12.1042C15.0192 12.1041 15 12.1084 14.9824 12.1169C14.9649 12.1253 14.9494 12.1376 14.9374 12.1529C14.452 12.7929 12.326 15.6216 11.872 16.1949C11.4187 16.7683 10.302 16.7996 9.68337 16.1949L6.84671 13.4209C6.82842 13.4029 6.80524 13.3906 6.78004 13.3856C6.7549 13.3805 6.72883 13.383 6.70511 13.3928C6.68138 13.4025 6.66106 13.419 6.64671 13.4402C6.63281 13.4612 6.62539 13.4858 6.62537 13.5109V18.8442C6.63158 19.2245 6.5162 19.5968 6.29604 19.9069C6.07604 20.2176 5.76004 20.4556 5.39471 20.5829C5.16113 20.6622 4.91224 20.6859 4.6679 20.652C4.42356 20.6181 4.19052 20.5275 3.98737 20.3876C3.78655 20.2499 3.62189 20.0658 3.50737 19.8509C3.39359 19.6375 3.33385 19.3994 3.33337 19.1576V9.56625C3.34969 9.21911 3.47785 8.88656 3.69871 8.61825C3.91871 8.34758 4.22204 8.15158 4.56404 8.05758C4.85665 7.9814 5.16398 7.98213 5.45622 8.05968C5.74847 8.13724 6.01571 8.289 6.23204 8.50025L10.592 12.7543C10.6047 12.7676 10.6207 12.7769 10.6387 12.7829C10.6562 12.7891 10.6748 12.7916 10.6933 12.7901C10.7118 12.7886 10.7298 12.7832 10.746 12.7742C10.7621 12.7654 10.7759 12.7531 10.7867 12.7383L13.884 8.55825C14.0274 8.38892 14.2074 8.25158 14.4107 8.15758C14.6134 8.06292 14.8347 8.01292 15.0614 8.01025H23.12C23.34 8.01025 23.558 8.05692 23.7594 8.14625C23.9581 8.23451 24.1358 8.36385 24.281 8.52575C24.4261 8.68765 24.5353 8.87845 24.6014 9.08558C24.6654 9.29158 24.6827 9.50758 24.654 9.72025C24.5962 10.0918 24.4032 10.429 24.112 10.6669C23.8194 10.9096 23.448 11.0403 23.064 11.0343H18.552C18.5297 11.0346 18.5078 11.0408 18.4887 11.0524C18.4696 11.0641 18.454 11.0806 18.4434 11.1002C18.433 11.1197 18.4279 11.1415 18.4287 11.1636C18.4287 11.1849 18.4374 11.2069 18.45 11.2256H18.4447L18.444 11.2249Z" fill="url(#paint0_linear_125_33561)"/>
    </g>
  </g>
  <defs>
    <linearGradient id="paint0_linear_125_33561" x1="-0.209959" y1="6.22892" x2="23.5774" y2="20.1176" gradientUnits="userSpaceOnUse">
      <stop offset="0.23" stop-color="#FF0074"/>
      <stop offset="0.26" stop-color="#FF0068"/>
      <stop offset="0.32" stop-color="#FF0048"/>
      <stop offset="0.39" stop-color="#FF0015"/>
      <stop offset="0.41" stop-color="#FF0009"/>
      <stop offset="0.43" stop-color="#FF0908"/>
      <stop offset="0.54" stop-color="#FF4003"/>
      <stop offset="0.62" stop-color="#FF6201"/>
      <stop offset="0.66" stop-color="#FF6F00"/>
      <stop offset="0.72" stop-color="#FF8700"/>
      <stop offset="0.83" stop-color="#FFAB00"/>
      <stop offset="0.92" stop-color="#FFC100"/>
      <stop offset="0.98" stop-color="#FFCA00"/>
    </linearGradient>
    <clipPath id="clip0_125_33561">
      <rect width="28" height="28" fill="white"/>
    </clipPath>
  </defs>
</svg>