<svg xmlns="http://www.w3.org/2000/svg" width="28" height="28" viewBox="0 0 28 28" fill="none">
  <g clip-path="url(#clip0_125_33728)">
    <mask id="mask0_125_33728" style="mask-type:luminance" maskUnits="userSpaceOnUse" x="0" y="0" width="28" height="28">
      <path d="M0 0H28V28H0V0Z" fill="white"/>
    </mask>
    <g mask="url(#mask0_125_33728)">
      <path d="M21.3333 0H6.66667C2.98467 0 0 2.98467 0 6.66667V21.3333C0 25.0153 2.98467 28 6.66667 28H21.3333C25.0153 28 28 25.0153 28 21.3333V6.66667C28 2.98467 25.0153 0 21.3333 0Z" fill="black"/>
      <mask id="mask1_125_33728" style="mask-type:luminance" maskUnits="userSpaceOnUse" x="0" y="0" width="28" height="28">
        <path d="M0 0H28V28H0V0Z" fill="white"/>
      </mask>
      <g mask="url(#mask1_125_33728)">
        <path d="M16.3853 11.3678H11.8607C11.7689 11.3683 11.681 11.405 11.6161 11.4699C11.5512 11.5348 11.5145 11.6227 11.514 11.7144V16.2398C11.514 16.4304 11.6707 16.5864 11.8607 16.5864H16.3853C16.576 16.5864 16.7327 16.4304 16.7327 16.2398V11.7151C16.7323 11.6232 16.6957 11.5352 16.6308 11.4701C16.5659 11.4051 16.4779 11.3683 16.386 11.3678H16.3853ZM11.1553 6.14844H6.63066C6.53865 6.14879 6.45051 6.1855 6.38544 6.25056C6.32038 6.31562 6.28368 6.40376 6.28333 6.49577V11.0204C6.28333 11.2111 6.43999 11.3678 6.62999 11.3678H11.1553C11.3453 11.3678 11.502 11.2111 11.502 11.0211V6.4951C11.5015 6.40332 11.4648 6.31545 11.3999 6.25055C11.335 6.18566 11.2471 6.14896 11.1553 6.14844ZM21.616 6.14844H17.0913C16.9993 6.14879 16.9112 6.1855 16.8461 6.25056C16.781 6.31562 16.7443 6.40376 16.744 6.49577V11.0204C16.744 11.2111 16.9007 11.3678 17.0907 11.3678H21.616C21.8067 11.3678 21.9627 11.2111 21.9627 11.0211V6.4951C21.9621 6.40332 21.9254 6.31545 21.8605 6.25055C21.7956 6.18566 21.7078 6.14896 21.616 6.14844ZM11.1553 16.5984H6.63066C6.53876 16.5988 6.45072 16.6354 6.38568 16.7003C6.32064 16.7652 6.28385 16.8532 6.28333 16.9451V21.4704C6.28333 21.6604 6.43999 21.8171 6.62999 21.8171H11.1553C11.3453 21.8171 11.502 21.6604 11.502 21.4704V16.9451C11.5015 16.8533 11.4648 16.7655 11.3999 16.7006C11.335 16.6357 11.2471 16.599 11.1553 16.5984ZM21.616 16.5984H17.0913C16.9994 16.5988 16.9114 16.6354 16.8463 16.7003C16.7813 16.7652 16.7445 16.8532 16.744 16.9451V21.4704C16.744 21.6604 16.9007 21.8171 17.0907 21.8171H21.616C21.8067 21.8171 21.9627 21.6604 21.9627 21.4704V16.9451C21.9621 16.8533 21.9254 16.7655 21.8605 16.7006C21.7956 16.6357 21.7078 16.599 21.616 16.5984Z" fill="white"/>
      </g>
    </g>
  </g>
  <defs>
    <clipPath id="clip0_125_33728">
      <rect width="28" height="28" fill="white"/>
    </clipPath>
  </defs>
</svg>