<svg xmlns="http://www.w3.org/2000/svg" width="28" height="28" viewBox="0 0 28 28" fill="none">
  <g clip-path="url(#clip0_125_33739)">
    <mask id="mask0_125_33739" style="mask-type:luminance" maskUnits="userSpaceOnUse" x="0" y="0" width="28" height="28">
      <path d="M0 0H28V28H0V0Z" fill="white"/>
    </mask>
    <g mask="url(#mask0_125_33739)">
      <path d="M21.3333 0H6.66667C2.98467 0 0 2.98467 0 6.66667V21.3333C0 25.0153 2.98467 28 6.66667 28H21.3333C25.0153 28 28 25.0153 28 21.3333V6.66667C28 2.98467 25.0153 0 21.3333 0Z" fill="#AB9FF2"/>
      <path fill-rule="evenodd" clip-rule="evenodd" d="M11.7907 18.378C10.6733 20.0907 8.80133 22.2573 6.31067 22.2573C5.13267 22.2573 4 21.772 4 19.666C4 14.3027 11.3227 6 18.1173 6C21.9827 6 23.5227 8.682 23.5227 11.7267C23.5227 15.636 20.986 20.1053 18.4647 20.1053C17.6647 20.1053 17.2713 19.666 17.2713 18.9693C17.2713 18.7873 17.302 18.5907 17.3627 18.378C16.502 19.848 14.8407 21.2113 13.2853 21.2113C12.1533 21.2113 11.5793 20.4993 11.5793 19.4993C11.5793 19.136 11.6553 18.7573 11.7907 18.3787V18.378ZM17.644 11.6213C17.644 12.5087 17.12 12.9527 16.5347 12.9527C15.94 12.9527 15.4253 12.5087 15.4253 11.6213C15.4253 10.734 15.94 10.2907 16.5347 10.2907C17.12 10.2907 17.644 10.734 17.644 11.6213ZM20.9707 11.6213C20.9707 12.5087 20.4473 12.9527 19.862 12.9527C19.2673 12.9527 18.7527 12.5087 18.7527 11.6213C18.7527 10.7347 19.2673 10.2907 19.862 10.2907C20.4473 10.2907 20.9713 10.734 20.9713 11.6213H20.9707Z" fill="#FFFDF8"/>
    </g>
  </g>
  <defs>
    <clipPath id="clip0_125_33739">
      <rect width="28" height="28" fill="white"/>
    </clipPath>
  </defs>
</svg>