<svg xmlns="http://www.w3.org/2000/svg" width="18" height="24" viewBox="0 0 18 24" fill="none">
  <g clip-path="url(#clip0_180_26013)">
    <path d="M17.2156 6.872C17.2156 6.33917 16.7829 5.90723 16.2491 5.90723H1.64285C1.10901 5.90723 0.67631 6.33917 0.67631 6.872V11.6779C0.67631 16.2369 4.37874 19.9329 8.94597 19.9329C13.5131 19.9329 17.2156 16.2369 17.2156 11.6779V6.872Z" fill="url(#paint0_linear_180_26013)"/>
    <path fill-rule="evenodd" clip-rule="evenodd" d="M1.33113 14.9035C2.5893 17.8601 5.52507 19.9336 8.94597 19.9336C13.5131 19.9336 17.2156 16.2377 17.2156 11.6786V8.20706C15.6449 7.34135 13.8391 6.84863 11.9179 6.84863C6.86245 6.84863 2.60523 10.2605 1.33113 14.9035Z" fill="url(#paint1_linear_180_26013)"/>
    <path fill-rule="evenodd" clip-rule="evenodd" d="M3.30837 17.7236C4.78548 19.0981 6.76732 19.9391 8.94597 19.9391C13.5131 19.9391 17.2156 16.2432 17.2156 11.684V10.8016C15.8159 9.92786 14.1616 9.42285 12.3891 9.42285C7.62434 9.42285 3.71345 13.0722 3.30837 17.7236Z" fill="url(#paint2_linear_180_26013)"/>
    <path fill-rule="evenodd" clip-rule="evenodd" d="M6.16335 19.498C6.33535 15.6877 9.47295 12.6514 13.3184 12.6514C14.6549 12.6514 15.906 13.0181 16.9767 13.6567C16.3109 16.3797 14.3039 18.575 11.6972 19.4997V19.9611C11.6972 20.6291 11.3376 21.213 10.8018 21.5291V22.7856C10.8018 23.4551 10.2601 23.9978 9.59197 23.9978H8.27321C7.60498 23.9978 7.06331 23.4551 7.06331 22.7856V21.5291C6.52751 21.213 6.168 20.6291 6.168 19.9611V19.4997C6.16641 19.4991 6.16488 19.4986 6.16335 19.498Z" fill="url(#paint3_linear_180_26013)"/>
    <path d="M14.1284 0.366879C14.1284 0.164257 13.9638 0 13.7608 0H12.0824C11.8795 0 11.7149 0.164257 11.7149 0.366879V5.90675H14.1284V0.366879Z" fill="white"/>
    <path d="M6.23865 0.366879C6.23865 0.164257 6.07412 0 5.87112 0H4.19273C3.98973 0 3.8252 0.164257 3.8252 0.366879V5.90675H6.23865V0.366879Z" fill="white"/>
    <g filter="url(#filter0_i_180_26013)">
      <path d="M13.0984 14.3058C13.1372 14.2983 13.173 14.329 13.1705 14.3685C13.0476 16.3219 11.2004 17.8727 8.93968 17.8727C6.68415 17.8727 4.84026 16.3291 4.70972 14.382C4.70709 14.3425 4.74274 14.3116 4.78157 14.319C6.09721 14.572 7.51275 14.8184 8.93968 14.8184C10.3916 14.8184 11.7646 14.5672 13.0984 14.3058Z" fill="url(#paint4_linear_180_26013)"/>
    </g>
    <path d="M12.9088 14.6162C12.836 15.2299 11.0447 15.979 8.9126 15.979C6.78533 15.979 5.02726 15.228 4.9472 14.6162C6.19171 14.6958 6.29425 15.0914 8.9126 15.0914C11.6644 15.0914 11.6451 14.6984 12.9088 14.6162Z" fill="url(#paint5_linear_180_26013)"/>
    <path d="M9.25861 10.6088C9.88077 11.7489 10.8533 12.9011 11.9769 12.871C13.1245 12.871 14.0549 11.8581 14.0549 10.6088C14.0549 9.35945 13.1245 8.34668 11.9769 8.34668C10.8292 8.34668 9.9835 9.34808 9.25861 10.6088Z" fill="url(#paint6_linear_180_26013)"/>
    <path d="M8.646 10.6121C8.02383 11.7295 7.05128 12.9006 5.92769 12.871C4.78007 12.871 3.84973 11.8366 3.84973 10.6121C3.84973 9.38758 4.77401 8.34668 5.92168 8.34668C7.06929 8.34668 7.92111 9.37639 8.646 10.6121Z" fill="url(#paint7_linear_180_26013)"/>
    <path d="M11.1664 11.5339C10.8647 11.5339 10.6202 11.2898 10.6202 10.9886C10.6202 10.6875 10.8647 10.4434 11.1664 10.4434C11.4681 10.4434 11.7126 10.6875 11.7126 10.9886C11.7126 11.2898 11.4681 11.5339 11.1664 11.5339Z" fill="#031514"/>
    <path d="M10.9756 11.4157C10.8738 11.4157 10.7913 11.3334 10.7913 11.2318C10.7913 11.1302 10.8738 11.0479 10.9756 11.0479C11.0773 11.0479 11.1599 11.1302 11.1599 11.2318C11.1599 11.3334 11.0773 11.4157 10.9756 11.4157Z" fill="white"/>
    <path d="M6.73251 11.5339C6.43083 11.5339 6.18627 11.2898 6.18627 10.9886C6.18627 10.6875 6.43083 10.4434 6.73251 10.4434C7.03419 10.4434 7.27875 10.6875 7.27875 10.9886C7.27875 11.2898 7.03419 11.5339 6.73251 11.5339Z" fill="#031514"/>
    <path d="M6.54168 11.4157C6.43991 11.4157 6.35741 11.3334 6.35741 11.2318C6.35741 11.1302 6.43991 11.0479 6.54168 11.0479C6.64345 11.0479 6.72595 11.1302 6.72595 11.2318C6.72595 11.3334 6.64345 11.4157 6.54168 11.4157Z" fill="white"/>
    <path d="M9.24707 10.6305L14.0427 10.8777C14.0531 10.7872 14.0608 10.7451 14.0608 10.6788C14.0729 9.34663 13.1367 8.33398 11.9589 8.33398C10.7811 8.33398 9.86317 9.49736 9.25914 10.6004C9.26422 10.6097 9.24193 10.6212 9.24707 10.6305Z" fill="#031514"/>
    <path d="M8.65743 10.6305L3.85688 10.8777C3.84652 10.7872 3.84493 10.7451 3.84493 10.6788C3.80248 9.37072 4.76884 8.33398 5.94628 8.33398C7.12373 8.33398 8.04151 9.49736 8.64536 10.6004C8.64028 10.6097 8.66257 10.6212 8.65743 10.6305Z" fill="#031514"/>
    <g filter="url(#filter1_i_180_26013)">
      <path d="M5.95582 7.77734C7.41785 7.77734 8.48203 9.23465 8.9461 10.0124C9.41017 9.23465 10.4743 7.77734 11.9364 7.77734C13.412 7.77734 14.6122 9.04607 14.6122 10.6054C14.6122 12.1647 13.412 13.4334 11.9364 13.4334C10.4745 13.4334 9.41017 11.9761 8.9461 11.1982C8.48203 11.9761 7.41785 13.4334 5.95582 13.4334C4.48019 13.4334 3.28002 12.1647 3.28002 10.6054C3.28002 9.04607 4.48019 7.77734 5.95582 7.77734ZM11.9364 12.8678C13.0993 12.8678 14.0456 11.8529 14.0456 10.6054C14.0456 9.35786 13.0993 8.34295 11.9364 8.34295C10.5547 8.34295 9.52 10.1213 9.26377 10.6054C9.52 11.0895 10.5545 12.8678 11.9364 12.8678ZM5.95582 12.8678C7.33748 12.8678 8.3722 11.0895 8.62843 10.6054C8.3722 10.1213 7.33748 8.34295 5.95582 8.34295C4.79283 8.34295 3.84663 9.35786 3.84663 10.6054C3.84663 11.8529 4.79283 12.8678 5.95582 12.8678Z" fill="url(#paint8_linear_180_26013)"/>
    </g>
  </g>
  <defs>
    <filter id="filter0_i_180_26013" x="4.70959" y="14.3047" width="8.461" height="3.56836" filterUnits="userSpaceOnUse" color-interpolation-filters="sRGB">
      <feFlood flood-opacity="0" result="BackgroundImageFix"/>
      <feBlend mode="normal" in="SourceGraphic" in2="BackgroundImageFix" result="shape"/>
      <feColorMatrix in="SourceAlpha" type="matrix" values="0 0 0 0 0 0 0 0 0 0 0 0 0 0 0 0 0 0 127 0" result="hardAlpha"/>
      <feOffset/>
      <feGaussianBlur stdDeviation="15.25"/>
      <feComposite in2="hardAlpha" operator="arithmetic" k2="-1" k3="1"/>
      <feColorMatrix type="matrix" values="0 0 0 0 0 0 0 0 0 0 0 0 0 0 0 0 0 0 0.64 0"/>
      <feBlend mode="normal" in2="shape" result="effect1_innerShadow_180_26013"/>
    </filter>
    <filter id="filter1_i_180_26013" x="3.28003" y="7.77734" width="11.3322" height="5.65625" filterUnits="userSpaceOnUse" color-interpolation-filters="sRGB">
      <feFlood flood-opacity="0" result="BackgroundImageFix"/>
      <feBlend mode="normal" in="SourceGraphic" in2="BackgroundImageFix" result="shape"/>
      <feColorMatrix in="SourceAlpha" type="matrix" values="0 0 0 0 0 0 0 0 0 0 0 0 0 0 0 0 0 0 127 0" result="hardAlpha"/>
      <feOffset/>
      <feGaussianBlur stdDeviation="15.25"/>
      <feComposite in2="hardAlpha" operator="arithmetic" k2="-1" k3="1"/>
      <feColorMatrix type="matrix" values="0 0 0 0 0 0 0 0 0 0 0 0 0 0 0 0 0 0 0.64 0"/>
      <feBlend mode="normal" in2="shape" result="effect1_innerShadow_180_26013"/>
    </filter>
    <linearGradient id="paint0_linear_180_26013" x1="6.17933" y1="11.105" x2="0.239887" y2="5.14899" gradientUnits="userSpaceOnUse">
      <stop stop-color="#46FF47"/>
      <stop offset="1" stop-color="#9CFF9D"/>
    </linearGradient>
    <linearGradient id="paint1_linear_180_26013" x1="7.61699" y1="10.981" x2="5.60223" y2="7.48086" gradientUnits="userSpaceOnUse">
      <stop stop-color="#10D9ED"/>
      <stop offset="1" stop-color="#10D9ED" stop-opacity="0.3"/>
    </linearGradient>
    <linearGradient id="paint2_linear_180_26013" x1="8.26941" y1="12.4711" x2="7.11357" y2="9.39038" gradientUnits="userSpaceOnUse">
      <stop stop-color="#FA51D3"/>
      <stop offset="0.958774" stop-color="#FA51D3" stop-opacity="0"/>
    </linearGradient>
    <linearGradient id="paint3_linear_180_26013" x1="11.0748" y1="17.2618" x2="9.21815" y2="12.3084" gradientUnits="userSpaceOnUse">
      <stop stop-color="#FFE700"/>
      <stop offset="1" stop-color="#FFE700" stop-opacity="0"/>
    </linearGradient>
    <linearGradient id="paint4_linear_180_26013" x1="8.93993" y1="14.2909" x2="8.93993" y2="17.8727" gradientUnits="userSpaceOnUse">
      <stop/>
      <stop offset="1" stop-opacity="0.65"/>
    </linearGradient>
    <linearGradient id="paint5_linear_180_26013" x1="7.78024" y1="14.8091" x2="7.78024" y2="15.774" gradientUnits="userSpaceOnUse">
      <stop offset="0.75" stop-color="white"/>
      <stop offset="1" stop-color="#DEDEDF"/>
    </linearGradient>
    <linearGradient id="paint6_linear_180_26013" x1="10.9653" y1="8.98737" x2="10.9654" y2="12.1908" gradientUnits="userSpaceOnUse">
      <stop offset="0.75" stop-color="white"/>
      <stop offset="1" stop-color="#DEDEDF"/>
    </linearGradient>
    <linearGradient id="paint7_linear_180_26013" x1="6.93931" y1="8.98737" x2="6.93925" y2="12.1908" gradientUnits="userSpaceOnUse">
      <stop offset="0.75" stop-color="white"/>
      <stop offset="1" stop-color="#DEDEDF"/>
    </linearGradient>
    <linearGradient id="paint8_linear_180_26013" x1="8.9461" y1="7.77734" x2="8.9461" y2="13.4334" gradientUnits="userSpaceOnUse">
      <stop/>
      <stop offset="1" stop-opacity="0.65"/>
    </linearGradient>
    <clipPath id="clip0_180_26013">
      <rect width="16.545" height="24" fill="white" transform="matrix(-1 0 0 1 17.2155 0)"/>
    </clipPath>
  </defs>
</svg>