<svg xmlns="http://www.w3.org/2000/svg" width="28" height="28" viewBox="0 0 28 28" fill="none">
  <g clip-path="url(#clip0_125_33719)">
    <mask id="mask0_125_33719" style="mask-type:luminance" maskUnits="userSpaceOnUse" x="0" y="0" width="28" height="28">
      <path d="M0 0H28V28H0V0Z" fill="white"/>
    </mask>
    <g mask="url(#mask0_125_33719)">
      <path d="M21.3333 0H6.66667C2.98467 0 0 2.98467 0 6.66667V21.3333C0 25.0153 2.98467 28 6.66667 28H21.3333C25.0153 28 28 25.0153 28 21.3333V6.66667C28 2.98467 25.0153 0 21.3333 0Z" fill="black"/>
      <path d="M17.0113 6.32219L20.8506 10.0629C21.1773 10.3809 21.338 10.7022 21.3333 11.0262C21.328 11.3502 21.1873 11.6455 20.9126 11.9129C20.6253 12.1935 20.3146 12.3355 19.9826 12.3422C19.6513 12.3469 19.3213 12.1902 18.9946 11.8722L15.068 8.04686C14.622 7.61219 14.1913 7.30419 13.7773 7.12353C13.3652 6.94268 12.9026 6.9127 12.4706 7.03886C12.014 7.16219 11.524 7.48019 10.9973 7.99086C10.2733 8.69753 9.92731 9.36019 9.96264 9.97953C9.99798 10.5989 10.358 11.2415 11.0406 11.9062L14.9993 15.7635C15.33 16.0849 15.4926 16.4062 15.4873 16.7255C15.482 17.0455 15.3406 17.3409 15.0606 17.6135C14.7813 17.8855 14.474 18.0269 14.1393 18.0389C13.8046 18.0495 13.472 17.8942 13.1426 17.5722L9.30264 13.8322C8.67864 13.2242 8.22731 12.6482 7.94998 12.1055C7.67264 11.5622 7.56864 10.9475 7.64064 10.2622C7.70531 9.67553 7.89664 9.10753 8.21598 8.55686C8.53398 8.00553 8.98998 7.44286 9.58131 6.86553C10.2866 6.17886 10.9586 5.65353 11.6 5.28686C12.24 4.92019 12.8593 4.71753 13.4573 4.67553C14.0566 4.63286 14.6466 4.75019 15.2306 5.02686C15.8146 5.30353 16.408 5.73419 17.0113 6.32219Z" fill="url(#paint0_linear_125_33719)"/>
      <path d="M10.9881 21.4158L7.14939 17.6751C6.82272 17.3558 6.66206 17.0358 6.66672 16.7118C6.67206 16.3878 6.81272 16.0924 7.08739 15.8251C7.37472 15.5444 7.68539 15.4024 8.01739 15.3958C8.34939 15.3911 8.67873 15.5471 9.00539 15.8658L12.9307 19.6911C13.3781 20.1258 13.8074 20.4338 14.2214 20.6144C14.6361 20.7944 15.0721 20.8224 15.5294 20.6991C15.9861 20.5758 16.4761 20.2578 17.0027 19.7458C17.7267 19.0391 18.0727 18.3765 18.0374 17.7571C18.0021 17.1378 17.6421 16.4951 16.9594 15.8298L14.8501 13.7924C14.5194 13.4711 14.3567 13.1498 14.3621 12.8304C14.3674 12.5104 14.5087 12.2151 14.7887 11.9424C15.0681 11.6704 15.3754 11.5291 15.7101 11.5171C16.0447 11.5064 16.3781 11.6618 16.7074 11.9838L18.6961 13.9038C19.3201 14.5118 19.7714 15.0871 20.0494 15.6304C20.3261 16.1738 20.4301 16.7878 20.3581 17.4731C20.2883 18.0759 20.0922 18.6572 19.7827 19.1791C19.4647 19.7298 19.0094 20.2924 18.4174 20.8698C17.7127 21.5564 17.0401 22.0824 16.3994 22.4485C15.7581 22.8151 15.1394 23.0191 14.5394 23.0618C13.9407 23.1038 13.3501 22.9864 12.7661 22.7104C12.1821 22.4338 11.5894 22.0024 10.9861 21.4144L10.9881 21.4158Z" fill="url(#paint1_linear_125_33719)"/>
      <path d="M13.382 11.7636C14.1607 11.7636 14.792 11.1436 14.792 10.3769C14.792 9.6109 14.1607 8.99023 13.382 8.99023C12.6034 8.99023 11.972 9.6109 11.972 10.3769C11.972 11.1436 12.6034 11.7636 13.382 11.7636Z" fill="url(#paint2_radial_125_33719)"/>
    </g>
  </g>
  <defs>
    <linearGradient id="paint0_linear_125_33719" x1="20.2193" y1="8.50153" x2="8.38598" y2="13.8482" gradientUnits="userSpaceOnUse">
      <stop stop-color="#201C1B"/>
      <stop offset="0.36" stop-color="#77390D"/>
      <stop offset="0.67" stop-color="#EA8101"/>
      <stop offset="1" stop-color="#F4B852"/>
    </linearGradient>
    <linearGradient id="paint1_linear_125_33719" x1="8.10872" y1="19.3904" x2="21.8594" y2="15.2298" gradientUnits="userSpaceOnUse">
      <stop stop-color="#1F1D1C"/>
      <stop offset="0.37" stop-color="#77390D"/>
      <stop offset="0.67" stop-color="#EA8101"/>
      <stop offset="1" stop-color="#F4FB52"/>
    </linearGradient>
    <radialGradient id="paint2_radial_125_33719" cx="0" cy="0" r="1" gradientUnits="userSpaceOnUse" gradientTransform="translate(13.382 10.3782) scale(1.40989 1.38679)">
      <stop stop-color="#F4B852"/>
      <stop offset="0.33" stop-color="#EA8101"/>
      <stop offset="0.64" stop-color="#77390D"/>
      <stop offset="1" stop-color="#211C1D"/>
    </radialGradient>
    <clipPath id="clip0_125_33719">
      <rect width="28" height="28" fill="white"/>
    </clipPath>
  </defs>
</svg>