<svg xmlns="http://www.w3.org/2000/svg" width="16" height="16" viewBox="0 0 16 16" fill="none">
    <g clip-path="url(#clip0_837_21957)">
        <path fill-rule="evenodd" clip-rule="evenodd" d="M15.3337 8.00033C15.3337 12.0504 12.0504 15.3337 8.00033 15.3337C3.95024 15.3337 0.666992 12.0504 0.666992 8.00033C0.666992 3.95024 3.95024 0.666992 8.00033 0.666992C12.0504 0.666992 15.3337 3.95024 15.3337 8.00033ZM8.00033 14.0003C11.314 14.0003 14.0003 11.314 14.0003 8.00033C14.0003 4.68662 11.314 2.00033 8.00033 2.00033C4.68662 2.00033 2.00033 4.68662 2.00033 8.00033C2.00033 11.314 4.68662 14.0003 8.00033 14.0003ZM4.66699 8.00033C4.66699 7.63213 4.96547 7.33366 5.33366 7.33366H7.33366V5.33366C7.33366 4.96547 7.63213 4.66699 8.00033 4.66699C8.36851 4.66699 8.66699 4.96547 8.66699 5.33366V7.33366H10.667C11.0352 7.33366 11.3337 7.63213 11.3337 8.00033C11.3337 8.36852 11.0352 8.66699 10.667 8.66699H8.66699V10.667C8.66699 11.0352 8.36852 11.3337 8.00033 11.3337C7.63214 11.3337 7.33366 11.0352 7.33366 10.667V8.66699H5.33366C4.96547 8.66699 4.66699 8.36852 4.66699 8.00033Z" fill="white" fill-opacity="0.4"/>
    </g>
    <defs>
        <clipPath id="clip0_837_21957">
            <rect width="16" height="16" fill="white"/>
        </clipPath>
    </defs>
</svg>