<svg xmlns="http://www.w3.org/2000/svg" width="16" height="16" viewBox="0 0 16 16" fill="none">
    <g clip-path="url(#clip0_837_40233)">
        <path d="M7.99928 0.000976562C3.58193 0.000976562 0.000976562 3.58249 0.000976562 8.00154C0.000976562 12.4172 3.58193 15.9998 7.99928 15.9998C12.4172 15.9998 15.9993 12.4172 15.9993 8.00154C15.9993 3.58306 12.4172 0.000976562 7.99928 0.000976562ZM7.99985 15.3057C3.96627 15.3057 0.696285 12.0351 0.696285 8.00154C0.696285 3.9674 3.96627 0.697414 7.99985 0.697414C12.0329 0.697414 15.3034 3.9674 15.3034 8.00154C15.3034 12.0351 12.0334 15.3057 7.99985 15.3057ZM10.0773 2.62475L3.97586 8.00662L8.39491 8.74821L6.21417 13.3287L11.9674 7.34179L7.87738 6.7729L10.0773 2.62475Z" fill="#F7B406"/>
    </g>
    <defs>
        <clipPath id="clip0_837_40233">
            <rect width="16" height="16" fill="white"/>
        </clipPath>
    </defs>
</svg>