<svg xmlns="http://www.w3.org/2000/svg" width="16" height="16" viewBox="0 0 16 16" fill="none">
    <g opacity="0.4">
        <path d="M13.1703 3.93462L12.0675 2.01294C11.8345 1.60974 11.4526 1.31568 11.0051 1.19495C10.5576 1.07423 10.0809 1.13663 9.67889 1.36855L5.29603 3.91736H2.86175C2.63662 3.91736 2.4137 3.962 2.20572 4.04874C1.99773 4.13549 1.80875 4.26263 1.64956 4.42291C1.49038 4.58319 1.3641 4.77347 1.27795 4.98288C1.1918 5.1923 1.14746 5.41674 1.14746 5.64341V13.123C1.14746 13.5808 1.32807 14.0198 1.64956 14.3435C1.97105 14.6672 2.40709 14.8491 2.86175 14.8491H13.1475C13.3726 14.8491 13.5955 14.8044 13.8035 14.7177C14.0115 14.6309 14.2005 14.5038 14.3596 14.3435C14.5188 14.1832 14.6451 13.9929 14.7313 13.7835C14.8174 13.5741 14.8617 13.3497 14.8617 13.123V5.64341C14.8573 5.19259 14.6779 4.76141 14.3618 4.44208C14.0457 4.12274 13.618 3.94061 13.1703 3.93462ZM10.2503 2.36391C10.3193 2.32373 10.3955 2.29766 10.4746 2.28719C10.5536 2.27673 10.6339 2.28207 10.7109 2.30292C10.7878 2.32376 10.86 2.3597 10.9231 2.40867C10.9863 2.45764 11.0392 2.51868 11.0789 2.58829L11.8503 3.93462H7.58175L10.2503 2.36391ZM13.7189 10.5512H11.4332C11.1301 10.5512 10.8394 10.4299 10.6251 10.2141C10.4107 9.99834 10.2903 9.70565 10.2903 9.40047C10.2903 9.09528 10.4107 8.80259 10.6251 8.58679C10.8394 8.37099 11.1301 8.24976 11.4332 8.24976H13.7189V10.5512ZM13.7189 7.09906H11.4332C10.827 7.09906 10.2456 7.34152 9.81693 7.77312C9.38828 8.20472 9.14746 8.79009 9.14746 9.40047C9.14746 10.0108 9.38828 10.5962 9.81693 11.0278C10.2456 11.4594 10.827 11.7019 11.4332 11.7019H13.7189V13.1403C13.7189 13.2158 13.7041 13.2906 13.6754 13.3604C13.6467 13.4302 13.6046 13.4937 13.5515 13.5471C13.4985 13.6005 13.4355 13.6429 13.3661 13.6718C13.2968 13.7007 13.2225 13.7156 13.1475 13.7156H2.86175C2.71019 13.7156 2.56485 13.655 2.45769 13.5471C2.35052 13.4392 2.29032 13.2928 2.29032 13.1403V5.66067C2.29032 5.58512 2.3051 5.5103 2.33382 5.4405C2.36253 5.37069 2.40462 5.30727 2.45769 5.25384C2.51075 5.20041 2.57374 5.15803 2.64307 5.12912C2.7124 5.1002 2.78671 5.08532 2.86175 5.08532H13.1475C13.2225 5.08532 13.2968 5.1002 13.3661 5.12912C13.4355 5.15803 13.4985 5.20041 13.5515 5.25384C13.6046 5.30727 13.6467 5.37069 13.6754 5.4405C13.7041 5.5103 13.7189 5.58512 13.7189 5.66067V7.09906Z" fill="white"/>
    </g>
</svg>