<svg width="26" height="26" viewBox="0 0 26 26" fill="none" xmlns="http://www.w3.org/2000/svg">
<path d="M13.0003 2.16699C18.9587 2.16699 23.8337 7.04199 23.8337 13.0003C23.8337 18.9587 18.9587 23.8337 13.0003 23.8337C7.04199 23.8337 2.16699 18.9587 2.16699 13.0003C2.16699 7.04199 7.04199 2.16699 13.0003 2.16699ZM13.0003 4.33366C8.23366 4.33366 4.33366 8.23366 4.33366 13.0003C4.33366 17.767 8.23366 21.667 13.0003 21.667C17.767 21.667 21.667 17.767 21.667 13.0003C21.667 8.23366 17.767 4.33366 13.0003 4.33366ZM12.2932 8.29076C12.6837 7.90024 13.3169 7.90024 13.7074 8.29076L17.7099 12.2932C18.1004 12.6837 18.1004 13.3169 17.7099 13.7074L13.7074 17.7099C13.3169 18.1004 12.6837 18.1004 12.2932 17.7099L8.29076 13.7074C7.90024 13.3169 7.90024 12.6837 8.29076 12.2932L12.2932 8.29076ZM13.0003 10.617L10.617 13.0003L13.0003 15.3837L15.3837 13.0003L13.0003 10.617Z" fill="white" fill-opacity="0.6"/>
</svg>
