<svg xmlns="http://www.w3.org/2000/svg" width="12" height="12" viewBox="0 0 12 12" fill="none">
  <g opacity="0.4" clip-path="url(#clip0_187_33136)">
    <path d="M8.5595 5.70426C8.62475 6.18726 8.62475 6.78126 8.62475 7.42851V8.54601C8.62475 8.69451 8.62475 8.76801 8.67275 8.81301C8.72075 8.85726 8.79275 8.85201 8.93675 8.84151C9.05559 8.83309 9.17414 8.82109 9.29225 8.80551C9.77225 8.74101 10.1705 8.61126 10.5065 8.33526C10.6267 8.23679 10.737 8.12676 10.8357 8.00676C11.1267 7.65201 11.2543 7.22751 11.3158 6.71226C11.375 6.20976 11.375 5.57526 11.375 4.77426V4.72551C11.375 3.92451 11.375 3.28926 11.315 2.78751C11.255 2.27151 11.1268 1.84776 10.835 1.49301C10.7375 1.37301 10.6265 1.26276 10.5065 1.16376C10.1517 0.872762 9.72725 0.745262 9.212 0.683762C8.7095 0.624512 8.075 0.624512 7.27475 0.624512H7.226C6.425 0.624512 5.7905 0.624512 5.288 0.684512C4.77275 0.744512 4.34825 0.872762 3.9935 1.16451C3.8735 1.26201 3.76325 1.37301 3.665 1.49301C3.389 1.82901 3.26 2.22801 3.19475 2.70801C3.17975 2.81901 3.16775 2.93751 3.15875 3.06276C3.14825 3.20676 3.143 3.27876 3.18725 3.32676C3.23225 3.37476 3.30575 3.37476 3.45425 3.37476H4.57175C5.219 3.37476 5.81225 3.37476 6.29675 3.44001C6.82925 3.51126 7.39325 3.68001 7.85675 4.14351C8.32025 4.60701 8.489 5.17101 8.56025 5.70351L8.5595 5.70426Z" fill="white"/>
    <path d="M3.97275 4.125H4.52775C5.211 4.125 5.76225 4.125 6.19575 4.1835C6.64575 4.2435 7.0245 4.37325 7.326 4.674C7.62675 4.9755 7.7565 5.35425 7.8165 5.80425C7.875 6.23775 7.875 6.789 7.875 7.47225V8.02725C7.875 8.71125 7.875 9.2625 7.8165 9.696C7.7565 10.146 7.62675 10.5248 7.326 10.8255C7.0245 11.127 6.64575 11.256 6.19575 11.3167C5.76225 11.3752 5.211 11.3752 4.52775 11.3752H3.97275C3.28875 11.3752 2.7375 11.3752 2.304 11.3167C1.854 11.2567 1.47525 11.127 1.1745 10.8255C0.873 10.5255 0.744 10.146 0.68325 9.696C0.62475 9.2625 0.62475 8.71125 0.62475 8.02725V7.47225C0.62475 6.789 0.62475 6.23775 0.68325 5.80425C0.74325 5.35425 0.873 4.9755 1.1745 4.674C1.4745 4.37325 1.854 4.2435 2.304 4.1835C2.7375 4.125 3.28875 4.125 3.97275 4.125Z" fill="white"/>
  </g>
  <defs>
    <clipPath id="clip0_187_33136">
      <rect width="12" height="12" fill="white" transform="matrix(-1 0 0 1 12 0)"/>
    </clipPath>
  </defs>
</svg>