<svg xmlns="http://www.w3.org/2000/svg" width="14" height="14" viewBox="0 0 14 14" fill="none">
    <g clip-path="url(#clip0_672_8490)">
        <path d="M9.98649 6.65489C10.0626 7.21839 10.0626 7.91139 10.0626 8.66652V9.97027C10.0626 10.1435 10.0626 10.2293 10.1186 10.2818C10.1746 10.3334 10.2586 10.3273 10.4266 10.315C10.5653 10.3052 10.7036 10.2912 10.8414 10.273C11.4014 10.1978 11.866 10.0464 12.258 9.72439C12.3983 9.60951 12.5269 9.48114 12.6421 9.34114C12.9816 8.92727 13.1304 8.43202 13.2021 7.83089C13.2712 7.24464 13.2712 6.50439 13.2712 5.56989V5.51302C13.2712 4.57852 13.2712 3.83739 13.2012 3.25202C13.1312 2.65002 12.9816 2.15564 12.6412 1.74177C12.5275 1.60177 12.398 1.47314 12.258 1.35764C11.8441 1.01814 11.3489 0.869391 10.7477 0.797641C10.1615 0.728516 9.42124 0.728516 8.48762 0.728516H8.43074C7.49624 0.728516 6.75599 0.728516 6.16974 0.798516C5.56861 0.868516 5.07337 1.01814 4.65949 1.35852C4.51949 1.47227 4.39087 1.60177 4.27624 1.74177C3.95424 2.13377 3.80374 2.59927 3.72762 3.15927C3.71012 3.28877 3.69612 3.42702 3.68562 3.57314C3.67337 3.74114 3.66724 3.82514 3.71887 3.88114C3.77137 3.93714 3.85712 3.93714 4.03036 3.93714H5.33412C6.08924 3.93714 6.78137 3.93714 7.34662 4.01327C7.96787 4.09639 8.62587 4.29327 9.16662 4.83402C9.70737 5.37477 9.90424 6.03277 9.98737 6.65402L9.98649 6.65489Z" fill="#111111"/>
        <path d="M4.63487 4.8125H5.28237C6.0795 4.8125 6.72263 4.8125 7.22838 4.88075C7.75338 4.95075 8.19525 5.10212 8.547 5.453C8.89788 5.80475 9.04925 6.24662 9.11925 6.77162C9.1875 7.27737 9.1875 7.9205 9.1875 8.71763V9.36513C9.1875 10.1631 9.1875 10.8063 9.11925 11.312C9.04925 11.837 8.89788 12.2789 8.547 12.6298C8.19525 12.9815 7.75338 13.132 7.22838 13.2029C6.72263 13.2711 6.0795 13.2711 5.28237 13.2711H4.63487C3.83687 13.2711 3.19375 13.2711 2.688 13.2029C2.163 13.1329 1.72113 12.9815 1.37025 12.6298C1.0185 12.2797 0.868 11.837 0.797125 11.312C0.728875 10.8063 0.728875 10.1631 0.728875 9.36513V8.71763C0.728875 7.9205 0.728875 7.27737 0.797125 6.77162C0.867126 6.24662 1.0185 5.80475 1.37025 5.453C1.72025 5.10212 2.163 4.95075 2.688 4.88075C3.19375 4.8125 3.83687 4.8125 4.63487 4.8125Z" fill="#111111"/>
    </g>
    <defs>
        <clipPath id="clip0_672_8490">
            <rect width="14" height="14" fill="white" transform="matrix(-1 0 0 1 14 0)"/>
        </clipPath>
    </defs>
</svg>