<svg xmlns="http://www.w3.org/2000/svg" width="16" height="16" viewBox="0 0 16 16" fill="none">
<g clip-path="url(#clip0_132_45746)">
<path d="M7.99953 0.000488281C3.58217 0.000488281 0.0012207 3.58201 0.0012207 8.00105C0.0012207 12.4167 3.58217 15.9994 7.99953 15.9994C12.4174 15.9994 15.9995 12.4167 15.9995 8.00105C15.9995 3.58257 12.4174 0.000488281 7.99953 0.000488281ZM8.00009 15.3052C3.96651 15.3052 0.696529 12.0346 0.696529 8.00105C0.696529 3.96691 3.96651 0.696926 8.00009 0.696926C12.0331 0.696926 15.3037 3.96691 15.3037 8.00105C15.3037 12.0346 12.0337 15.3052 8.00009 15.3052ZM10.0776 2.62426L3.97611 8.00613L8.39515 8.74772L6.21441 13.3282L11.9676 7.3413L7.87762 6.77241L10.0776 2.62426Z" fill="#F7B406"/>
</g>
<defs>
<clipPath id="clip0_132_45746">
<rect width="16" height="16" fill="white"/>
</clipPath>
</defs>
</svg>