<svg xmlns="http://www.w3.org/2000/svg" width="18" height="18" viewBox="0 0 18 18" fill="none">
    <path d="M9.00879 16.0137C5.13039 16.0137 1.98633 12.8696 1.98633 8.99121C1.98633 5.11281 5.13039 1.96875 9.00879 1.96875C12.8872 1.96875 16.0313 5.11281 16.0313 8.99121C16.0313 12.8696 12.8872 16.0137 9.00879 16.0137ZM9.00879 14.6074C12.1105 14.6074 14.625 12.093 14.625 8.99121C14.625 5.88946 12.1105 3.375 9.00879 3.375C5.90704 3.375 3.39258 5.88946 3.39258 8.99121C3.39258 12.093 5.90704 14.6074 9.00879 14.6074Z" fill="white"/>
    <path d="M8.26831 8.71915C8.26831 8.33083 8.58312 8.01602 8.97144 8.01602C9.35587 8.01602 9.66827 8.32456 9.67447 8.70751L9.67456 8.71915L9.67456 12.9141C9.67456 13.3024 9.35977 13.6172 8.97144 13.6172C8.587 13.6172 8.27462 13.3086 8.26842 12.9257L8.26831 12.9141L8.26831 8.71915Z" fill="white"/>
    <path d="M9 6.97852C9.25641 6.97852 9.50232 6.87666 9.68363 6.69535C9.86494 6.51404 9.9668 6.26813 9.9668 6.01172C9.9668 5.75531 9.86494 5.5094 9.68363 5.32809C9.50232 5.14678 9.25641 5.04492 9 5.04492C8.74359 5.04492 8.49768 5.14678 8.31637 5.32809C8.13506 5.5094 8.0332 5.75531 8.0332 6.01172C8.0332 6.26813 8.13506 6.51404 8.31637 6.69535C8.49768 6.87666 8.74359 6.97852 9 6.97852Z" fill="white"/>
</svg>