<svg xmlns="http://www.w3.org/2000/svg" width="44" height="44" viewBox="0 0 44 44" fill="none">
  <g clip-path="url(#clip0_125_42796)">
    <path d="M22 44C9.86919 44 0 34.131 0 22C0 9.86919 9.86919 0 22 0C34.131 0 44 9.86919 44 22C44 34.131 34.131 44 22 44ZM22 4.4C12.2954 4.4 4.4 12.2954 4.4 22C4.4 31.7046 12.2954 39.6 22 39.6C31.7046 39.6 39.6 31.7046 39.6 22C39.6 12.2954 31.7046 4.4 22 4.4Z" fill="#3C3C3C"/>
    <path d="M4.4 22H0C0 9.86919 9.86919 0 22 0V4.4C12.2954 4.4 4.4 12.2954 4.4 22Z" fill="#F7B406"/>
  </g>
  <defs>
    <clipPath id="clip0_125_42796">
      <rect width="44" height="44" fill="white"/>
    </clipPath>
  </defs>
</svg>