<svg width="64" height="64" viewBox="0 0 64 64" fill="none" xmlns="http://www.w3.org/2000/svg">
<path d="M0.106721 50.3467C0.101072 51.1458 0.861151 51.9374 2.34348 52.6761C3.82581 53.4148 6.0013 54.0861 8.74553 54.6516C11.4897 55.2171 14.7489 55.6657 18.3364 55.9718C21.924 56.2779 25.7696 56.4355 29.6534 56.4355C33.5371 56.4355 37.3828 56.2779 40.9703 55.9718C44.5579 55.6657 47.817 55.2171 50.5612 54.6516C53.3055 54.0861 55.4809 53.4148 56.9633 52.6761C58.4456 51.9374 59.2057 51.1458 59.2 50.3467C59.2057 49.5475 58.4456 48.7559 56.9633 48.0172C55.4809 47.2785 53.3055 46.6072 50.5612 46.0417C47.817 45.4762 44.5579 45.0276 40.9703 44.7215C37.3828 44.4154 33.5371 44.2578 29.6534 44.2578C25.7696 44.2578 21.924 44.4154 18.3364 44.7215C14.7489 45.0276 11.4897 45.4762 8.74553 46.0417C6.0013 46.6072 3.82581 47.2785 2.34348 48.0172C0.861151 48.7559 0.101072 49.5475 0.106721 50.3467Z" fill="url(#paint0_linear_578_4929)"/>
<path d="M47.5733 11.9468H29.9733V10.5601C29.9733 8.85342 28.5867 7.4668 26.88 7.4668H14.08C12.3733 7.4668 10.9867 8.85342 10.9867 10.5601V12.0534C9.7067 12.3734 8.64001 13.5468 8.64001 15.0401V29.2268C8.64001 30.9334 10.0267 32.3201 11.7333 32.3201H47.5733C49.28 32.3201 50.6667 30.9334 50.6667 29.2268V14.9334C50.6667 13.3334 49.28 11.9468 47.5733 11.9468Z" fill="white"/>
<path d="M47.5733 32.747H11.7333C9.70669 32.747 8.10669 31.147 8.10669 29.1203V14.9336C8.10669 13.4403 9.06669 12.1603 10.4533 11.627V10.5603C10.4533 8.53359 12.0533 6.93359 14.08 6.93359H26.88C28.9067 6.93359 30.5067 8.53359 30.5067 10.5603V11.4136H47.5733C49.6 11.4136 51.2 13.0136 51.2 15.0403V29.227C51.2 31.147 49.6 32.747 47.5733 32.747ZM14.08 8.10697C12.6933 8.10697 11.52 9.28028 11.52 10.667V12.587L11.0933 12.6936C10.0267 12.8003 9.28 13.867 9.28 14.9336V29.1203C9.28 30.507 10.4533 31.6803 11.84 31.6803H47.68C49.0667 31.6803 50.24 30.507 50.24 29.1203V14.9336C50.24 13.547 49.0667 12.3736 47.68 12.3736H29.5467V10.5603C29.5467 9.17359 28.3733 8.00028 26.9867 8.00028H14.08V8.10697Z" fill="#5D88E4"/>
<path d="M47.5733 11.9468H29.9733V10.5601C29.9733 8.85342 28.5867 7.4668 26.88 7.4668H14.08C12.3733 7.4668 10.9867 8.85342 10.9867 10.5601V12.0534C9.7067 12.3734 8.64001 13.5468 8.64001 15.0401V29.2268C8.64001 30.9334 10.0267 32.3201 11.7333 32.3201H47.5733C49.28 32.3201 50.6667 30.9334 50.6667 29.2268V14.9334C50.6667 13.3334 49.28 11.9468 47.5733 11.9468Z" fill="#F5F5F5"/>
<path d="M47.5733 32.747H11.7333C9.70669 32.747 8.10669 31.147 8.10669 29.1203V14.9336C8.10669 13.4403 9.06669 12.1603 10.4533 11.627V10.5603C10.4533 8.53359 12.0533 6.93359 14.08 6.93359H26.88C28.9067 6.93359 30.5067 8.53359 30.5067 10.5603V11.4136H47.5733C49.6 11.4136 51.2 13.0136 51.2 15.0403V29.227C51.2 31.147 49.6 32.747 47.5733 32.747ZM14.08 8.10697C12.6933 8.10697 11.52 9.28028 11.52 10.667V12.587L11.0933 12.6936C10.0267 12.8003 9.28 13.867 9.28 14.9336V29.1203C9.28 30.507 10.4533 31.6803 11.84 31.6803H47.68C49.0667 31.6803 50.24 30.507 50.24 29.1203V14.9336C50.24 13.547 49.0667 12.3736 47.68 12.3736H29.5467V10.5603C29.5467 9.17359 28.3733 8.00028 26.9867 8.00028H14.08V8.10697Z" fill="#999999"/>
<path d="M48.5334 50.0272H10.8801C9.38675 50.0272 8.10675 48.9605 7.89337 47.6805L5.12006 20.1605C4.90675 18.4538 6.18675 17.1738 7.89337 17.1738H51.4134C53.1201 17.1738 54.4001 18.5605 54.1868 20.1605L51.3068 47.6805C51.3068 48.9605 50.0268 50.0272 48.5334 50.0272Z" fill="white"/>
<path d="M48.5333 50.5606H10.8799C9.17325 50.5606 7.57325 49.2806 7.35994 47.7873L4.58663 20.2673C4.47994 19.3073 4.79994 18.4539 5.43994 17.7073C6.07994 16.9606 6.93325 16.6406 7.99994 16.6406H51.5199C52.4799 16.6406 53.4399 17.0673 54.0799 17.7073C54.7199 18.3473 54.9333 19.3073 54.9333 20.2673L52.0533 47.7873C51.8399 49.2806 50.2399 50.5606 48.5333 50.5606ZM7.89325 17.7073C7.14663 17.7073 6.61325 17.9206 6.18663 18.4539C5.75994 18.8806 5.54663 19.5206 5.65325 20.1606L8.53325 47.5739C8.63994 48.5339 9.70663 49.3873 10.9866 49.3873H48.5333C49.7066 49.3873 50.8799 48.5339 50.9866 47.5739L53.8666 20.0539C53.9733 19.4139 53.7599 18.7739 53.3333 18.3473C52.9066 17.8139 52.2666 17.6006 51.6266 17.6006H7.89325V17.7073Z" fill="#5D88E4"/>
<path d="M48.5334 50.0272H10.8801C9.38675 50.0272 8.10675 48.9605 7.89337 47.6805L5.12006 20.1605C4.90675 18.4538 6.18675 17.1738 7.89337 17.1738H51.4134C53.1201 17.1738 54.4001 18.5605 54.1868 20.1605L51.3068 47.6805C51.3068 48.9605 50.0268 50.0272 48.5334 50.0272Z" fill="#F5F5F5"/>
<path d="M48.5333 50.5606H10.8799C9.17325 50.5606 7.57325 49.2806 7.35994 47.7873L4.58663 20.2673C4.47994 19.3073 4.79994 18.4539 5.43994 17.7073C6.07994 16.9606 6.93325 16.6406 7.99994 16.6406H51.5199C52.4799 16.6406 53.4399 17.0673 54.0799 17.7073C54.7199 18.3473 54.9333 19.3073 54.9333 20.2673L52.0533 47.7873C51.8399 49.2806 50.2399 50.5606 48.5333 50.5606ZM7.89325 17.7073C7.14663 17.7073 6.61325 17.9206 6.18663 18.4539C5.75994 18.8806 5.54663 19.5206 5.65325 20.1606L8.53325 47.5739C8.63994 48.5339 9.70663 49.3873 10.9866 49.3873H48.5333C49.7066 49.3873 50.8799 48.5339 50.9866 47.5739L53.8666 20.0539C53.9733 19.4139 53.7599 18.7739 53.3333 18.3473C52.9066 17.8139 52.2666 17.6006 51.6266 17.6006H7.89325V17.7073ZM56.4266 56.9606C56.1066 56.9606 55.7866 56.6406 55.7866 56.3206V52.9073C55.7866 52.5873 56.1066 52.2673 56.4266 52.2673C56.7466 52.2673 57.0666 52.5873 57.0666 52.9073V56.3206C56.9599 56.7473 56.7466 56.9606 56.4266 56.9606Z" fill="#999999"/>
<path d="M58.6667 54.7201C58.6667 55.0401 58.3467 55.3601 58.0267 55.3601H54.6133C54.2933 55.3601 53.9733 55.0401 53.9733 54.7201C53.9733 54.4001 54.2933 54.0801 54.6133 54.0801H58.0267C58.3467 54.0801 58.6667 54.4001 58.6667 54.7201ZM5.11998 12.1601C4.79998 12.1601 4.47998 11.8401 4.47998 11.5201V8.1068C4.47998 7.7868 4.79998 7.4668 5.11998 7.4668C5.43998 7.4668 5.75998 7.7868 5.75998 8.1068V11.5201C5.65329 11.8401 5.43998 12.1601 5.11998 12.1601Z" fill="#999999"/>
<path d="M7.36 9.81383C7.36 10.1338 7.04 10.4538 6.72 10.4538H3.41332C3.09332 10.4538 2.77332 10.1338 2.77332 9.81383C2.77332 9.49383 3.09332 9.17383 3.41332 9.17383H6.82669C7.14669 9.17383 7.36 9.49383 7.36 9.81383ZM60.0533 19.0938C59.7333 19.0938 59.52 18.8805 59.52 18.5605V16.4272C59.52 16.1072 59.7333 15.8938 60.0533 15.8938C60.3733 15.8938 60.5867 16.1072 60.5867 16.4272V18.5605C60.48 18.8805 60.2667 19.0938 60.0533 19.0938ZM60.0533 23.6805C59.7333 23.6805 59.52 23.4672 59.52 23.1472V21.0138C59.52 20.6938 59.7333 20.4805 60.0533 20.4805C60.3733 20.4805 60.5867 20.6938 60.5867 21.0138V23.1472C60.48 23.4672 60.2667 23.6805 60.0533 23.6805ZM59.3067 19.8405C59.3067 20.1605 59.0933 20.3738 58.7733 20.3738H56.64C56.32 20.3738 56.1067 20.1605 56.1067 19.8405C56.1067 19.5205 56.32 19.3072 56.64 19.3072H58.7733C59.0933 19.3072 59.3067 19.6272 59.3067 19.8405ZM63.8933 19.8405C63.8933 20.1605 63.68 20.3738 63.36 20.3738H61.2267C60.9067 20.3738 60.6933 20.1605 60.6933 19.8405C60.6933 19.5205 60.9067 19.3072 61.2267 19.3072H63.36C63.5733 19.3072 63.8933 19.6272 63.8933 19.8405Z" fill="#999999"/>
<path d="M5.0133 34.1334L6.50668 31.4668L7.99999 34.1334L10.7733 35.6268L7.99999 37.1201L6.50668 39.8934L5.0133 37.1201L2.34668 35.6268L5.0133 34.1334Z" fill="white"/>
<path d="M6.50671 40.9597L4.58671 37.5463L1.17334 35.6263L4.58671 33.7063L6.50671 30.293L8.42671 33.7063L11.84 35.6263L8.42671 37.5463L6.50671 40.9597ZM3.41334 35.6263L5.44003 36.693L6.50671 38.7197L7.57334 36.693L9.60003 35.6263L7.57334 34.5597L6.50671 32.533L5.44003 34.5597L3.41334 35.6263Z" fill="#999999"/>
<path d="M5.0133 34.1334L6.50668 31.4668L7.99999 34.1334L10.7733 35.6268L7.99999 37.1201L6.50668 39.8934L5.0133 37.1201L2.34668 35.6268L5.0133 34.1334Z" fill="#F5F5F5"/>
<path d="M6.50672 40.9607L4.58672 37.5474L1.17334 35.6274L4.58672 33.7074L6.50672 30.2941L8.42672 33.7074L11.84 35.6274L8.42672 37.5474L6.50672 40.9607ZM3.41334 35.6274L5.44003 36.6941L6.50672 38.7208L7.57334 36.6941L9.60003 35.6274L7.57334 34.5608L6.50672 32.5341L5.44003 34.5608L3.41334 35.6274ZM54.4 11.8407L54.6133 11.4141L54.9333 11.8407L55.36 12.1607L54.9333 12.3741L54.6133 12.9074L54.4 12.3741L53.8667 12.1607L54.4 11.8407Z" fill="#999999"/>
<path d="M54.6134 13.9735L53.9734 12.8002L52.8 12.1602L53.9734 11.4135L54.6134 10.2402L55.2534 11.4135L56.5334 12.1602L55.2534 12.8002L54.6134 13.9735Z" fill="#999999"/>
<path d="M18.5601 26.3464C18.5601 26.5145 18.5932 26.6809 18.6575 26.8362C18.7218 26.9915 18.8161 27.1326 18.935 27.2515C19.0538 27.3704 19.1949 27.4646 19.3502 27.529C19.5055 27.5933 19.672 27.6264 19.8401 27.6264C20.0082 27.6264 20.1746 27.5933 20.3299 27.529C20.4852 27.4646 20.6263 27.3704 20.7452 27.2515C20.864 27.1326 20.9583 26.9915 21.0226 26.8362C21.087 26.6809 21.1201 26.5145 21.1201 26.3464C21.1201 26.1783 21.087 26.0119 21.0226 25.8566C20.9583 25.7013 20.864 25.5602 20.7452 25.4413C20.6263 25.3225 20.4852 25.2282 20.3299 25.1638C20.1746 25.0995 20.0082 25.0664 19.8401 25.0664C19.672 25.0664 19.5055 25.0995 19.3502 25.1638C19.1949 25.2282 19.0538 25.3225 18.935 25.4413C18.8161 25.5602 18.7218 25.7013 18.6575 25.8566C18.5932 26.0119 18.5601 26.1783 18.5601 26.3464Z" fill="white"/>
<path d="M19.84 28.1599C18.88 28.1599 18.0267 27.3066 18.0267 26.3466C18.0267 25.3866 18.88 24.5332 19.84 24.5332C20.8 24.5332 21.6534 25.3866 21.6534 26.3466C21.6534 27.3066 20.8 28.1599 19.84 28.1599ZM19.84 25.5999C19.4134 25.5999 19.0934 25.9199 19.0934 26.3466C19.0934 26.7733 19.4134 27.0932 19.84 27.0932C20.2667 27.0932 20.5867 26.7732 20.5867 26.3466C20.5867 25.92 20.2667 25.5999 19.84 25.5999Z" fill="#999999"/>
<path d="M38.2933 26.3464C38.2933 26.6859 38.4282 27.0115 38.6682 27.2515C38.9083 27.4915 39.2339 27.6264 39.5733 27.6264C39.9128 27.6264 40.2384 27.4915 40.4784 27.2515C40.7185 27.0115 40.8533 26.6859 40.8533 26.3464C40.8533 26.0069 40.7185 25.6814 40.4784 25.4413C40.2384 25.2013 39.9128 25.0664 39.5733 25.0664C39.2339 25.0664 38.9083 25.2013 38.6682 25.4413C38.4282 25.6814 38.2933 26.0069 38.2933 26.3464Z" fill="white"/>
<path d="M39.5733 28.1599C38.6133 28.1599 37.76 27.3066 37.76 26.3466C37.76 25.3866 38.6133 24.5332 39.5733 24.5332C40.5333 24.5332 41.3867 25.3866 41.3867 26.3466C41.3867 27.3066 40.64 28.1599 39.5733 28.1599ZM39.5733 25.5999C39.1467 25.5999 38.8267 25.9199 38.8267 26.3466C38.8267 26.7733 39.1467 27.0932 39.5733 27.0932C39.9999 27.0932 40.32 26.7732 40.32 26.3466C40.32 25.92 40 25.5999 39.5733 25.5999Z" fill="#999999"/>
<path d="M31.5734 53.7591C30.1867 52.3724 30.4001 50.1324 31.8934 48.6391L42.3467 38.6124C43.6267 37.4391 45.5467 37.4391 46.7201 38.6124C47.8934 39.7858 47.8934 41.8124 46.7201 42.9858L36.6934 53.4391C35.2001 54.9324 32.8534 55.0391 31.5734 53.7591Z" fill="white"/>
<path d="M33.8133 55.1465C32.7466 55.1465 31.8933 54.7198 31.1466 54.0798C30.4 53.3331 30.08 52.3731 30.08 51.4131C30.08 50.2398 30.6133 49.0665 31.4666 48.2131L41.92 38.1865C43.3066 36.7998 45.6533 36.7998 47.04 38.1865C48.4266 39.5731 48.4266 41.9198 47.04 43.3065L37.0133 53.7598C36.16 54.6131 34.9866 55.1465 33.8133 55.1465ZM44.48 38.1865C43.84 38.1865 43.0933 38.3998 42.6666 38.9331L32.2133 49.0665C31.5733 49.7065 31.1466 50.5598 31.1466 51.5198C31.1466 52.2665 31.36 52.9065 31.8933 53.4398C32.96 54.5065 34.9866 54.3998 36.2666 53.1198L46.2933 42.6665C47.2533 41.5998 47.2533 39.9998 46.2933 39.0398C45.8666 38.5065 45.2266 38.1865 44.48 38.1865Z" fill="#999999"/>
<path d="M31.5734 53.7591C30.1867 52.3724 30.4001 50.1324 31.8934 48.6391L42.3467 38.6124C43.6267 37.4391 45.5467 37.4391 46.7201 38.6124C47.8934 39.7858 47.8934 41.8124 46.7201 42.9858L36.6934 53.4391C35.2001 54.9324 32.8534 55.0391 31.5734 53.7591Z" fill="#BBBBBB"/>
<path d="M38.6133 34.346C38.6133 37.6276 39.9169 40.7748 42.2374 43.0953C44.5578 45.4157 47.705 46.7193 50.9866 46.7193C54.2682 46.7193 57.4154 45.4157 59.7359 43.0953C62.0564 40.7748 63.36 37.6276 63.36 34.346C63.36 31.0644 62.0564 27.9172 59.7359 25.5967C57.4154 23.2763 54.2682 21.9727 50.9866 21.9727C47.705 21.9727 44.5578 23.2763 42.2374 25.5967C39.9169 27.9172 38.6133 31.0644 38.6133 34.346Z" fill="white"/>
<path d="M50.9867 47.1469C47.5733 47.1469 44.3733 45.7602 41.92 43.4135C36.9067 38.4002 36.9067 30.2935 41.92 25.2802C44.3733 22.8269 47.5733 21.5469 50.9867 21.5469C54.4001 21.5469 57.6 22.9335 60.0533 25.2802C65.0667 30.2935 65.0667 38.4002 60.0533 43.4135C57.6 45.8669 54.4 47.1469 50.9867 47.1469ZM50.9867 22.5069C47.7867 22.5069 44.9067 23.6802 42.6667 25.9202C38.08 30.5069 38.08 37.9735 42.6667 42.5602C44.9067 44.8002 47.8933 45.9735 50.9867 45.9735C54.0801 45.9735 57.0667 44.6935 59.3067 42.5602C63.8933 37.9735 63.8933 30.5069 59.3067 25.9202C57.0667 23.7869 54.08 22.5069 50.9867 22.5069Z" fill="#999999"/>
<path d="M39.1467 34.3459C39.1467 35.9007 39.453 37.4403 40.048 38.8768C40.643 40.3133 41.5151 41.6186 42.6146 42.718C43.714 43.8174 45.0193 44.6896 46.4558 45.2846C47.8923 45.8796 49.4319 46.1859 50.9867 46.1859C52.5416 46.1859 54.0812 45.8796 55.5177 45.2846C56.9542 44.6896 58.2594 43.8174 59.3589 42.718C60.4583 41.6186 61.3304 40.3133 61.9255 38.8768C62.5205 37.4403 62.8267 35.9007 62.8267 34.3459C62.8267 32.791 62.5205 31.2514 61.9255 29.8149C61.3304 28.3784 60.4583 27.0732 59.3589 25.9737C58.2594 24.8743 56.9542 24.0021 55.5177 23.4071C54.0812 22.8121 52.5416 22.5059 50.9867 22.5059C49.4319 22.5059 47.8923 22.8121 46.4558 23.4071C45.0193 24.0021 43.714 24.8743 42.6146 25.9737C41.5151 27.0732 40.643 28.3784 40.048 29.8149C39.453 31.2514 39.1467 32.791 39.1467 34.3459Z" fill="#F5F5F5"/>
<path d="M41.2801 34.3466C41.2768 35.6233 41.5255 36.8882 42.0119 38.0687C42.4982 39.2492 43.2127 40.3222 44.1144 41.2261C45.016 42.1301 46.0872 42.8473 47.2664 43.3366C48.4457 43.826 49.7099 44.0779 50.9867 44.0779C52.2635 44.0779 53.5277 43.826 54.707 43.3366C55.8863 42.8473 56.9574 42.1301 57.8591 41.2261C58.7608 40.3222 59.4752 39.2492 59.9616 38.0687C60.4479 36.8882 60.6966 35.6233 60.6934 34.3466C60.6966 33.0698 60.4479 31.8049 59.9616 30.6244C59.4752 29.4439 58.7608 28.3709 57.8591 27.467C56.9574 26.563 55.8863 25.8458 54.707 25.3565C53.5277 24.8671 52.2635 24.6152 50.9867 24.6152C49.7099 24.6152 48.4457 24.8671 47.2664 25.3565C46.0872 25.8458 45.016 26.563 44.1144 27.467C43.2127 28.3709 42.4982 29.4439 42.0119 30.6244C41.5255 31.8049 41.2768 33.0698 41.2801 34.3466Z" fill="white"/>
<path d="M50.9867 44.5874C48.2133 44.5874 45.6533 43.5207 43.7333 41.6007C41.8133 39.6807 40.7467 37.1207 40.7467 34.3474C40.7467 31.5741 41.8133 29.014 43.7333 27.094C45.6533 25.174 48.2133 24.1074 50.9867 24.1074C53.76 24.1074 56.32 25.174 58.24 27.094C60.16 29.014 61.2267 31.574 61.2267 34.3474C61.2267 37.1208 60.16 39.6807 58.24 41.6007C56.32 43.5207 53.6533 44.5874 50.9867 44.5874ZM50.9867 25.0674C48.5333 25.0674 46.1867 26.0274 44.48 27.734C42.7733 29.4407 41.8133 31.7874 41.8133 34.2407C41.8133 36.694 42.7733 39.0407 44.48 40.7474C46.1867 42.4541 48.5333 43.414 50.9867 43.414C53.4401 43.414 55.7867 42.4541 57.4933 40.7474C59.2 39.0407 60.16 36.694 60.16 34.2407C60.16 31.7874 59.2 29.4407 57.4933 27.734C55.68 26.0274 53.44 25.0674 50.9867 25.0674Z" fill="#999999"/>
<path d="M41.7067 34.3464C41.7067 36.8076 42.6844 39.168 44.4247 40.9084C46.1651 42.6487 48.5255 43.6264 50.9867 43.6264C53.4479 43.6264 55.8083 42.6487 57.5486 40.9084C59.289 39.168 60.2667 36.8076 60.2667 34.3464C60.2667 31.8852 59.289 29.5248 57.5486 27.7845C55.8083 26.0441 53.4479 25.0664 50.9867 25.0664C48.5255 25.0664 46.1651 26.0441 44.4247 27.7845C42.6844 29.5248 41.7067 31.8852 41.7067 34.3464Z" fill="#F5F5F5"/>
<path d="M34.88 49.1728C34.56 48.8528 34.56 48.4262 34.88 48.1062L39.4666 43.5195C39.7866 43.1995 40.2133 43.1995 40.5333 43.5195C40.8533 43.8395 40.8533 44.2662 40.5333 44.5862L35.9466 49.1728C35.7333 49.4928 35.2 49.4928 34.88 49.1728ZM32.96 50.2395C32.96 50.3516 32.982 50.4625 33.0249 50.5661C33.0678 50.6696 33.1307 50.7637 33.2099 50.8429C33.2891 50.9222 33.3832 50.985 33.4867 51.0279C33.5903 51.0708 33.7012 51.0929 33.8133 51.0929C33.9254 51.0929 34.0363 51.0708 34.1399 51.0279C34.2434 50.985 34.3375 50.9222 34.4167 50.8429C34.496 50.7637 34.5588 50.6696 34.6017 50.5661C34.6446 50.4625 34.6666 50.3516 34.6666 50.2395C34.6666 50.1275 34.6446 50.0165 34.6017 49.913C34.5588 49.8094 34.496 49.7153 34.4167 49.6361C34.3375 49.5569 34.2434 49.494 34.1399 49.4511C34.0363 49.4082 33.9254 49.3862 33.8133 49.3862C33.7012 49.3862 33.5903 49.4082 33.4867 49.4511C33.3832 49.494 33.2891 49.5569 33.2099 49.6361C33.1307 49.7153 33.0678 49.8094 33.0249 49.913C32.982 50.0165 32.96 50.1275 32.96 50.2395ZM46.4 29.0128C46.2933 29.0128 46.2933 29.0128 46.4 29.0128C46.08 28.6928 46.1866 28.2662 46.5066 28.0528C49.6 25.8128 53.76 26.1328 56.5333 28.7995C56.7467 29.0128 56.7467 29.4395 56.5333 29.7595C56.32 29.9728 55.8933 29.9728 55.5733 29.7595C53.3333 27.5195 49.8133 27.3062 47.2533 29.1195C46.9333 29.3328 46.6133 29.3328 46.4 29.0128ZM43.52 33.7062C43.4133 33.5995 43.3066 33.3862 43.3066 33.1728C43.4133 32.4262 43.6267 31.6795 44.0533 30.9328C44.16 30.6128 44.5867 30.5062 44.9067 30.6128C45.2267 30.7195 45.3333 31.1462 45.2267 31.4662C44.9067 31.9995 44.6933 32.6395 44.5867 33.2795C44.48 33.5995 44.16 33.9195 43.84 33.8128C43.7333 33.8128 43.6266 33.8128 43.52 33.7062Z" fill="white"/>
<path d="M38.2933 40.961C38.08 40.961 37.8666 40.8543 37.7599 40.641C36.3733 37.441 33.1733 35.4143 29.6533 35.4143C26.1333 35.4143 23.04 37.441 21.5466 40.641C21.44 40.961 21.1199 41.0677 20.7999 40.961C20.4799 40.8543 20.3733 40.5343 20.48 40.2143C22.08 36.6943 25.6 34.3477 29.5466 34.3477C33.4933 34.3477 37.0133 36.6943 38.6133 40.2143C38.7199 40.5343 38.6133 40.7477 38.2933 40.961Z" fill="#999999"/>
<defs>
<linearGradient id="paint0_linear_578_4929" x1="32.5" y1="57" x2="32.5" y2="39" gradientUnits="userSpaceOnUse">
<stop stop-color="#DDDDDD"/>
<stop offset="0.540031" stop-color="#DDDDDD" stop-opacity="0"/>
</linearGradient>
</defs>
</svg>
