<svg xmlns="http://www.w3.org/2000/svg" width="10" height="10" viewBox="0 0 10 10" fill="none">
<path d="M8.47 4.15969C8.36 3.81469 7.99 3.62969 7.645 3.73969C7.62 3.74469 7.6 3.75469 7.58 3.76469L5.385 4.75969L5.65 2.36469C5.69 2.00469 5.43 1.68469 5.075 1.64469C4.715 1.60469 4.395 1.86469 4.355 2.21969C4.35 2.26969 4.35 2.31469 4.355 2.36469L4.62 4.75969L2.42 3.76469C2.09 3.61469 1.705 3.75969 1.555 4.08969C1.405 4.41969 1.55 4.80469 1.88 4.95469C1.925 4.97469 1.97 4.98969 2.02 4.99969L4.38 5.48469L2.76 7.26469C2.515 7.52969 2.535 7.94469 2.805 8.18469C3.07 8.42969 3.485 8.40969 3.725 8.13969C3.76 8.10469 3.785 8.06469 3.81 8.02469L5 5.92969L6.19 8.02469C6.37 8.33969 6.765 8.44969 7.08 8.26969C7.395 8.08969 7.505 7.69469 7.325 7.37969C7.3 7.33469 7.27 7.29969 7.24 7.25969L5.615 5.47969L7.975 4.99469C8.33 4.92469 8.555 4.57969 8.485 4.22469C8.48 4.20469 8.475 4.17969 8.47 4.15969Z" fill="#F7B406"/>
</svg>