<svg xmlns="http://www.w3.org/2000/svg" width="18" height="18" viewBox="0 0 18 18" fill="none">
<path d="M13.9377 12.9557L16.5228 15.7475C16.6169 15.8453 16.6722 15.9741 16.6783 16.1097C16.6783 16.2652 16.6271 16.42 16.5234 16.5237C16.4255 16.6176 16.2968 16.6726 16.1613 16.6785C16.0064 16.6785 15.8509 16.6273 15.7472 16.5237L12.9036 13.4727L12.8524 13.4215C12.8524 13.4215 12.7999 13.4215 12.7999 13.369C12.6969 13.266 12.6451 13.1105 12.6451 12.9557C12.6451 12.8002 12.6963 12.6972 12.7999 12.5935C13.8858 11.4558 14.4547 10.0084 14.4547 8.40545C14.4547 5.09597 11.7659 2.40717 8.45704 2.40717C5.14756 2.40717 2.45876 5.09597 2.45876 8.40545C2.45876 11.7143 5.14756 14.4031 8.45704 14.4031C9.3356 14.4031 10.2148 14.1964 10.9385 13.8861C10.9903 13.8349 11.094 13.8349 11.1458 13.8349C11.3525 13.8349 11.5592 13.9897 11.6629 14.1446C11.7659 14.4031 11.6629 14.7653 11.4043 14.8689C10.4733 15.2823 9.49109 15.4896 8.45704 15.4896C4.52687 15.489 1.32104 12.2832 1.32104 8.40481C1.32104 4.47528 4.52687 1.32129 8.45704 1.32129C12.3859 1.32129 15.5924 4.52711 15.5924 8.40481C15.5924 10.0602 15.0235 11.6631 13.9377 12.9557Z" fill="white" fill-opacity="0.3"/>
</svg>