<svg width="40" height="43" viewBox="0 0 40 43" fill="none" xmlns="http://www.w3.org/2000/svg">
<g clip-path="url(#clip0_1366_6984)">
<path d="M35.6392 43.0004H10.3608C8.92012 43.0004 7.74805 41.8282 7.74805 40.3875V25.0288C7.74805 23.5881 8.92015 22.416 10.3608 22.416H35.6392C37.0799 22.416 38.252 23.5881 38.252 25.0288V28.6664C38.252 29.2165 37.806 29.6625 37.2559 29.6625H31.6367C29.9573 29.6625 28.591 31.0288 28.591 32.7082C28.591 34.3876 29.9573 35.7539 31.6367 35.7539H37.2559C37.806 35.7539 38.252 36.1999 38.252 36.75V40.3875C38.252 41.8282 37.0799 43.0004 35.6392 43.0004ZM10.3608 24.4082C10.0186 24.4082 9.74023 24.6866 9.74023 25.0288V40.3875C9.74023 40.7297 10.0186 41.0081 10.3608 41.0081H35.6392C35.9814 41.0081 36.2598 40.7297 36.2598 40.3875V37.746H31.6367C28.8588 37.746 26.5988 35.4861 26.5988 32.7082C26.5988 29.9303 28.8588 27.6703 31.6367 27.6703H36.2598V25.0288C36.2598 24.6865 35.9814 24.4082 35.6392 24.4082H10.3608Z" fill="white"/>
<path d="M33.754 32.7078C33.754 33.8773 32.8058 34.8255 31.6363 34.8255C30.4667 34.8255 29.5186 33.8773 29.5186 32.7078C29.5186 31.5381 30.4667 30.5901 31.6363 30.5901C32.8058 30.5901 33.754 31.5382 33.754 32.7078ZM18.8946 13.6968L23.0077 17.0317C23.102 17.1079 23.2319 17.1514 23.3646 17.1514C23.4979 17.1514 23.6282 17.1078 23.7213 17.0317L27.8351 13.6968C27.9793 13.5799 28.0224 13.4039 27.9443 13.2511C27.8661 13.0981 27.6817 12.9985 27.4777 12.9985H25.2824V10.8532V11.0266V9.41494C25.2824 9.18577 25.0532 9 24.7706 9H21.9591C21.6766 9 21.4475 9.18561 21.4473 9.41457V11.0265V10.8532V12.9984H19.2514C19.0468 12.9984 18.863 13.0981 18.7848 13.251C18.76 13.2994 18.7469 13.3529 18.7469 13.4073C18.7469 13.514 18.7975 13.6186 18.8946 13.6968ZM32.8811 18.3675L33.858 21.9094H35.9245L34.8009 17.8352C34.5834 17.0464 33.8901 16.4634 33.0758 16.3843C32.8337 16.3607 32.5894 16.3819 32.355 16.4469L12.5479 21.9094H20.0397L32.8811 18.3675Z" fill="white"/>
</g>
<path d="M12.8809 13.5406C12.8313 13.709 12.7487 13.8659 12.638 14.0021C12.5273 14.1384 12.3907 14.2513 12.236 14.3344C12.0819 14.4184 11.9125 14.471 11.7379 14.4892C11.5633 14.5073 11.3868 14.4906 11.2186 14.44L7.79352 13.4199L8.5566 10.8581L11.9815 11.8783H11.9816C12.6877 12.0886 13.0913 12.8343 12.8809 13.5406ZM14.0361 8.29058C14.12 8.4448 14.1726 8.61413 14.1907 8.78878C14.2088 8.96344 14.1921 9.13994 14.1415 9.3081C13.9311 10.0141 13.1851 10.4175 12.4793 10.2075H12.4792L9.05417 9.18745L9.81701 6.62564L13.2421 7.64572C13.4105 7.69537 13.5674 7.77793 13.7037 7.88862C13.84 7.99931 13.953 8.13593 14.0361 8.29058ZM15.5693 7.46109C15.1778 6.73754 14.5279 6.20968 13.7397 5.97494L13.2865 5.84006L13.9209 3.70991L12.2932 3.2251L11.6588 5.35526L10.2691 4.94137L10.9036 2.81121L10.5137 2.69506L8.934 2.22461L8.32247 4.2779L6.39737 3.70455L5.85407 5.52894L7.77916 6.10241L5.80141 12.7429L3.87631 12.1696L3.33301 13.9941L5.25798 14.5673L4.74192 16.3004L5.13173 16.4165L6.71141 16.887L7.25046 15.0771L8.64344 15.4919L8.10439 17.302L9.72554 17.7848L10.2646 15.9748L10.7209 16.1106C11.0076 16.1963 11.3051 16.2399 11.6043 16.2402C12.109 16.2402 12.6091 16.1148 13.0655 15.8678C13.7891 15.4762 14.3168 14.8265 14.5517 14.038C14.7986 13.2086 14.6767 12.3567 14.284 11.6554C14.9969 11.2833 15.565 10.6354 15.8122 9.80567C16.0471 9.01717 15.9607 8.18452 15.5693 7.46109Z" fill="#F7931A"/>
<defs>
<clipPath id="clip0_1366_6984">
<rect width="34" height="34" fill="white" transform="translate(6 9)"/>
</clipPath>
</defs>
</svg>
