<svg width="26" height="26" viewBox="0 0 26 26" fill="none" xmlns="http://www.w3.org/2000/svg">
<circle cx="13" cy="13" r="12" stroke="#DE3F4D" stroke-width="2"/>
<path d="M13.0004 17.1428C12.8291 17.1362 12.6585 17.1682 12.4985 17.237C12.3386 17.3058 12.1926 17.4099 12.0694 17.5432C11.9462 17.6765 11.8482 17.8362 11.7812 18.0127C11.7143 18.1893 11.6798 18.3792 11.6798 18.571C11.6798 18.7628 11.7143 18.9527 11.7812 19.1293C11.8482 19.3058 11.9462 19.4655 12.0694 19.5988C12.1926 19.7321 12.3386 19.8362 12.4985 19.905C12.6585 19.9738 12.8291 20.0058 13.0004 19.9991C13.168 19.9993 13.3341 19.9624 13.489 19.8907C13.6439 19.8189 13.7847 19.7137 13.9033 19.5811C14.0219 19.4484 14.116 19.2909 14.1802 19.1175C14.2445 18.9441 14.2775 18.7583 14.2776 18.5706C14.2773 18.1916 14.1426 17.8284 13.903 17.5606C13.6635 17.2929 13.3388 17.1426 13.0004 17.1428ZM13.9718 14.969C13.9061 15.7729 13.449 16.1485 12.9973 16.1485C12.5689 16.0582 12.2361 15.8537 12.0897 15.0404L11.5 7.44013C11.5 6.67643 12.3308 6 13.0359 6C13.7406 6 14.5 6.70723 14.5 7.47008L13.9718 14.969Z" fill="#DE3F4D"/>
</svg>
