<svg xmlns="http://www.w3.org/2000/svg" width="18" height="18" viewBox="0 0 18 18" fill="none">
<path d="M11.5931 12.1844C11.5484 12.3359 11.4741 12.4771 11.3745 12.5998C11.2749 12.7224 11.1519 12.8241 11.0127 12.8988C10.874 12.9745 10.7216 13.0218 10.5644 13.0381C10.4072 13.0544 10.2484 13.0394 10.0971 12.9938L7.01446 12.0758L7.70123 9.77014L10.7836 10.6883H10.7837C11.4193 10.8776 11.7825 11.5487 11.5931 12.1844ZM12.6328 7.45937C12.7083 7.59817 12.7556 7.75057 12.7719 7.90776C12.7882 8.06494 12.7732 8.2238 12.7277 8.37514C12.5383 9.01058 11.8669 9.37356 11.2316 9.18463H11.2315L8.14904 8.26656L8.8356 5.96093L11.9182 6.879C12.0698 6.92368 12.211 6.99799 12.3336 7.09761C12.4563 7.19723 12.558 7.32019 12.6328 7.45937ZM14.0127 6.71283C13.6603 6.06164 13.0754 5.58657 12.366 5.3753L11.9581 5.25391L12.5291 3.33677L11.0642 2.90045L10.4932 4.81759L9.24247 4.44508L9.81354 2.52794L9.4626 2.4234L8.04089 2L7.49051 3.84796L5.75793 3.33195L5.26896 4.9739L7.00154 5.49002L5.22156 11.4665L3.48897 10.9505L3 12.5925L4.73248 13.1084L4.26802 14.6682L4.61885 14.7727L6.04056 15.1961L6.5257 13.5672L7.77939 13.9406L7.29425 15.5696L8.75328 16.0042L9.23842 14.3752L9.64913 14.4974C9.90711 14.5745 10.1749 14.6138 10.4442 14.614C10.8984 14.614 11.3484 14.5011 11.7593 14.2788C12.4105 13.9265 12.8854 13.3417 13.0968 12.6321C13.319 11.8856 13.2093 11.1188 12.8559 10.4877C13.4975 10.1528 14.0088 9.56972 14.2313 8.82296C14.4426 8.11331 14.3649 7.36392 14.0127 6.71283Z" fill="#F7931A"/>
</svg>