<svg width="13" height="10" viewBox="0 0 13 10" fill="none" xmlns="http://www.w3.org/2000/svg">
<path fill-rule="evenodd" clip-rule="evenodd" d="M0.901811 4.28591C4.41532 2.87454 6.74871 1.94225 7.92882 1.48906C11.268 0.194225 11.7374 0.0129484 12.1799 0C12.2738 0 12.5286 0.0388451 12.7163 0.194225C12.9041 0.349606 12.9577 0.453193 12.9845 0.530883C13.0113 0.608573 12.9979 0.893437 12.9845 1.03587C12.7968 2.79685 12.1128 6.86263 11.7105 8.84373C11.5362 9.68538 11.2009 9.97024 10.8791 9.99614C10.1818 10.0479 9.65875 9.56884 8.97483 9.15449C7.91541 8.50708 7.56674 8.27401 6.53415 7.63954C5.35404 6.91443 5.83681 6.66841 6.52074 6.02099C6.69507 5.85266 9.63193 3.26299 9.67216 3.02992C9.71239 2.82274 9.72581 2.79685 9.63193 2.70621C9.52465 2.60262 9.41737 2.61557 9.33691 2.62852C9.22962 2.65441 7.62038 3.63849 4.48237 5.59369C3.9996 5.90445 3.57047 6.04689 3.18157 6.04689C2.75244 6.03394 1.921 5.82676 1.30412 5.63254C0.553143 5.39947 -0.0503216 5.28293 0.00331966 4.89448C0.0301403 4.70026 0.338578 4.49308 0.901811 4.28591Z" fill="white" fill-opacity="0.6"/>
</svg>
