<svg width="12" height="12" viewBox="0 0 12 12" fill="none" xmlns="http://www.w3.org/2000/svg">
<path d="M5.997 0C2.682 0 0 2.685 0 6C0 9.315 2.682 12 5.997 12C9.312 12 12 9.315 12 6C12 2.685 9.312 0 5.997 0ZM10.152 3.60001H8.382C8.187 2.85 7.91399 2.13 7.55399 1.46401C8.65799 1.842 9.57599 2.607 10.152 3.60001ZM6 1.221C6.501 1.941 6.89101 2.742 7.146 3.59999H4.854C5.10899 2.742 5.499 1.941 6 1.221ZM1.35599 7.2C1.257 6.816 1.2 6.414 1.2 6C1.2 5.58601 1.257 5.18401 1.35599 4.8H3.38099C3.33299 5.193 3.29999 5.592 3.29999 6C3.29999 6.40801 3.33299 6.807 3.384 7.2H1.35599ZM1.845 8.39999H3.615C3.81 9.15 4.08301 9.87 4.44301 10.539C3.33901 10.161 2.421 9.393 1.845 8.39999ZM3.615 3.60001H1.845C2.421 2.60701 3.33901 1.83901 4.44299 1.46101C4.08299 2.13 3.81 2.85 3.615 3.60001ZM6 10.779C5.502 10.059 5.112 9.25801 4.854 8.40001H7.146C6.88799 9.25799 6.498 10.059 6 10.779ZM7.404 7.2H4.596C4.539 6.807 4.5 6.40801 4.5 6C4.5 5.592 4.539 5.193 4.596 4.8H7.404C7.461 5.193 7.5 5.592 7.5 6C7.5 6.40801 7.461 6.807 7.404 7.2ZM7.55699 10.536C7.91699 9.867 8.18999 9.15 8.385 8.40001H10.155C9.576 9.393 8.65799 10.158 7.55699 10.536ZM8.61599 7.2C8.664 6.807 8.69999 6.40801 8.69999 6C8.69999 5.592 8.667 5.193 8.61599 4.8H10.641C10.74 5.18401 10.8 5.58601 10.8 6C10.8 6.414 10.743 6.816 10.641 7.2H8.61599Z" fill="white" fill-opacity="0.6"/>
</svg>
